<svg xmlns="http://www.w3.org/2000/svg" xmlns:xlink="http://www.w3.org/1999/xlink" width="1080" zoomAndPan="magnify" viewBox="0 0 810 809.999993" height="1080" preserveAspectRatio="xMidYMid meet" version="1.0"><defs><g/></defs><g fill="#800000" fill-opacity="1"><g transform="translate(316.934227, 528.201356)"><g><path d="M 0 -12.34375 L 9.8125 -37.859375 C 12.25 -33.742188 15.382812 -29.300781 19.21875 -24.53125 C 23.050781 -19.769531 27.160156 -15.707031 31.546875 -12.34375 C 35.941406 -8.976562 40.195312 -7.109375 44.3125 -6.734375 C 51.226562 -5.984375 55.945312 -8.363281 58.46875 -13.875 C 61 -19.394531 62.265625 -25.894531 62.265625 -33.375 L 62.265625 -152.015625 C 62.265625 -166.972656 60.765625 -177.019531 57.765625 -182.15625 C 54.773438 -187.300781 50.289062 -189.6875 44.3125 -189.3125 L 44.3125 -191.84375 L 106.859375 -191.84375 L 106.859375 -189.3125 C 100.878906 -189.6875 96.390625 -187.300781 93.390625 -182.15625 C 90.398438 -177.019531 88.90625 -166.972656 88.90625 -152.015625 L 88.90625 -49.640625 C 88.90625 -39.359375 86.519531 -30.523438 81.75 -23.140625 C 76.988281 -15.753906 70.445312 -10.050781 62.125 -6.03125 C 53.800781 -2.007812 44.40625 0 33.9375 0 C 27.207031 0 21.175781 -1.023438 15.84375 -3.078125 C 10.519531 -5.140625 5.238281 -8.226562 0 -12.34375 Z M 0 -12.34375 "/></g></g></g><g fill="#231f20" fill-opacity="1"><g transform="translate(347.739917, 484.376711)"><g><path d="M 0 -15.5625 L 12.375 -47.734375 C 15.4375 -42.546875 19.382812 -36.945312 24.21875 -30.9375 C 29.050781 -24.925781 34.238281 -19.796875 39.78125 -15.546875 C 45.320312 -11.304688 50.679688 -8.953125 55.859375 -8.484375 C 64.585938 -7.546875 70.539062 -10.550781 73.71875 -17.5 C 76.90625 -24.457031 78.5 -32.648438 78.5 -42.078125 L 78.5 -191.640625 C 78.5 -210.492188 76.613281 -223.160156 72.84375 -229.640625 C 69.070312 -236.128906 63.410156 -239.140625 55.859375 -238.671875 L 55.859375 -241.84375 L 134.71875 -241.84375 L 134.71875 -238.671875 C 127.175781 -239.140625 121.515625 -236.128906 117.734375 -229.640625 C 113.960938 -223.160156 112.078125 -210.492188 112.078125 -191.640625 L 112.078125 -62.578125 C 112.078125 -49.617188 109.070312 -38.484375 103.0625 -29.171875 C 97.050781 -19.859375 88.800781 -12.664062 78.3125 -7.59375 C 67.820312 -2.53125 55.976562 0 42.78125 0 C 34.289062 0 26.6875 -1.296875 19.96875 -3.890625 C 13.257812 -6.484375 6.601562 -10.375 0 -15.5625 Z M 0 -15.5625 "/></g></g></g></svg>