<svg xmlns="http://www.w3.org/2000/svg" xmlns:xlink="http://www.w3.org/1999/xlink" width="1080" zoomAndPan="magnify" viewBox="0 0 810 809.999993" height="1080" preserveAspectRatio="xMidYMid meet" version="1.0"><defs><g/><clipPath id="461c2f9acc"><path d="M 552 382.332031 L 643.425781 382.332031 L 643.425781 409.332031 L 552 409.332031 Z M 552 382.332031 " clip-rule="nonzero"/></clipPath><clipPath id="e6b7caf8ee"><path d="M 548.925781 390 L 566 390 L 566 399 L 548.925781 399 Z M 548.925781 390 " clip-rule="nonzero"/></clipPath><clipPath id="d6d2b35326"><path d="M 155.316406 382.332031 L 247 382.332031 L 247 409.332031 L 155.316406 409.332031 Z M 155.316406 382.332031 " clip-rule="nonzero"/></clipPath><clipPath id="dc91a6fc98"><path d="M 232 390 L 249.617188 390 L 249.617188 399 L 232 399 Z M 232 390 " clip-rule="nonzero"/></clipPath></defs><g fill="#ffffff" fill-opacity="1"><g transform="translate(254.38625, 411.991698)"><g><path d="M 22.984375 -45.984375 C 19.804688 -45.984375 16.828125 -45.390625 14.046875 -44.203125 C 11.265625 -43.015625 8.820312 -41.363281 6.71875 -39.25 C 4.613281 -37.144531 2.96875 -34.703125 1.78125 -31.921875 C 0.59375 -29.148438 0 -26.171875 0 -22.984375 C 0 -19.804688 0.59375 -16.828125 1.78125 -14.046875 C 2.96875 -11.265625 4.613281 -8.820312 6.71875 -6.71875 C 8.820312 -4.613281 11.265625 -2.96875 14.046875 -1.78125 C 16.828125 -0.59375 19.804688 0 22.984375 0 C 26.171875 0 29.148438 -0.59375 31.921875 -1.78125 C 34.703125 -2.96875 37.144531 -4.613281 39.25 -6.71875 C 41.363281 -8.820312 43.015625 -11.265625 44.203125 -14.046875 C 45.390625 -16.828125 45.984375 -19.804688 45.984375 -22.984375 C 45.984375 -26.171875 45.390625 -29.148438 44.203125 -31.921875 C 43.015625 -34.703125 41.363281 -37.144531 39.25 -39.25 C 37.144531 -41.363281 34.703125 -43.015625 31.921875 -44.203125 C 29.148438 -45.390625 26.171875 -45.984375 22.984375 -45.984375 Z M 15.59375 -43.421875 C 17.75 -44.179688 19.945312 -44.367188 22.1875 -43.984375 C 24.425781 -43.609375 26.597656 -42.738281 28.703125 -41.375 C 30.804688 -40.007812 32.707031 -38.238281 34.40625 -36.0625 C 36.113281 -33.882812 37.484375 -31.382812 38.515625 -28.5625 C 39.546875 -25.738281 40.101562 -22.945312 40.1875 -20.1875 C 40.28125 -17.4375 39.945312 -14.863281 39.1875 -12.46875 C 38.425781 -10.070312 37.304688 -8 35.828125 -6.25 C 34.347656 -4.5 32.535156 -3.242188 30.390625 -2.484375 C 28.234375 -1.722656 26.023438 -1.53125 23.765625 -1.90625 C 21.503906 -2.289062 19.328125 -3.164062 17.234375 -4.53125 C 15.148438 -5.90625 13.253906 -7.675781 11.546875 -9.84375 C 9.847656 -12.019531 8.488281 -14.519531 7.46875 -17.34375 C 6.4375 -20.164062 5.875 -22.960938 5.78125 -25.734375 C 5.6875 -28.515625 6.007812 -31.09375 6.75 -33.46875 C 7.488281 -35.84375 8.609375 -37.90625 10.109375 -39.65625 C 11.617188 -41.40625 13.445312 -42.660156 15.59375 -43.421875 Z M 15.59375 -43.421875 "/></g></g></g><g fill="#ffffff" fill-opacity="1"><g transform="translate(306.481201, 411.991698)"><g><path d="M 0.609375 -18.546875 C 1.453125 -15.097656 2.828125 -12.0625 4.734375 -9.4375 C 6.640625 -6.820312 8.914062 -4.796875 11.5625 -3.359375 C 14.207031 -1.921875 17.007812 -1.203125 19.96875 -1.203125 C 21.257812 -1.203125 22.644531 -1.359375 24.125 -1.671875 C 25.601562 -1.992188 26.992188 -2.488281 28.296875 -3.15625 C 29.597656 -3.832031 30.6875 -4.738281 31.5625 -5.875 C 32.4375 -7.019531 32.894531 -8.445312 32.9375 -10.15625 C 33.03125 -12.164062 32.46875 -13.96875 31.25 -15.5625 C 30.039062 -17.15625 28.585938 -18.332031 26.890625 -19.09375 C 25.003906 -19.988281 22.984375 -20.660156 20.828125 -21.109375 C 18.679688 -21.554688 16.507812 -22.015625 14.3125 -22.484375 C 12.125 -22.953125 10.019531 -23.613281 8 -24.46875 C 6.789062 -25.007812 5.566406 -25.679688 4.328125 -26.484375 C 3.097656 -27.285156 2.066406 -28.28125 1.234375 -29.46875 C 0.410156 -30.65625 0 -32.035156 0 -33.609375 C 0 -35.179688 0.378906 -36.601562 1.140625 -37.875 C 1.898438 -39.15625 2.863281 -40.273438 4.03125 -41.234375 C 5.195312 -42.203125 6.363281 -42.976562 7.53125 -43.5625 C 9.1875 -44.363281 10.941406 -44.96875 12.796875 -45.375 C 14.660156 -45.78125 16.554688 -45.984375 18.484375 -45.984375 C 21.929688 -45.984375 25.289062 -45.441406 28.5625 -44.359375 C 31.832031 -43.285156 34.679688 -41.765625 37.109375 -39.796875 L 34.625 -33.265625 C 32.375 -36.546875 30.171875 -39.125 28.015625 -41 C 25.867188 -42.882812 23.34375 -44.050781 20.4375 -44.5 C 18.195312 -44.851562 15.921875 -44.769531 13.609375 -44.25 C 11.304688 -43.738281 9.300781 -42.632812 7.59375 -40.9375 C 5.9375 -39.1875 5.296875 -37.378906 5.671875 -35.515625 C 6.054688 -33.660156 7.414062 -32.109375 9.75 -30.859375 C 11.582031 -29.910156 13.597656 -29.175781 15.796875 -28.65625 C 17.992188 -28.144531 20.234375 -27.65625 22.515625 -27.1875 C 24.804688 -26.71875 26.957031 -26.085938 28.96875 -25.296875 C 30.988281 -24.515625 32.710938 -23.363281 34.140625 -21.84375 C 35.398438 -20.5 36.253906 -18.875 36.703125 -16.96875 C 37.148438 -15.0625 37.21875 -13.125 36.90625 -11.15625 C 36.59375 -9.1875 35.894531 -7.460938 34.8125 -5.984375 C 33.738281 -4.503906 32.363281 -3.328125 30.6875 -2.453125 C 29.007812 -1.578125 27.21875 -0.945312 25.3125 -0.5625 C 23.40625 -0.1875 21.507812 0 19.625 0 C 15.945312 0 12.425781 -0.582031 9.0625 -1.75 C 5.707031 -2.914062 2.6875 -4.6875 0 -7.0625 L 0 -18.546875 Z M 0.609375 -18.546875 "/></g></g></g><g fill="#ffffff" fill-opacity="1"><g transform="translate(349.703296, 411.991698)"><g><path d="M 22.578125 -9.484375 C 22.578125 -5.941406 22.9375 -3.5625 23.65625 -2.34375 C 24.375 -1.132812 25.453125 -0.554688 26.890625 -0.609375 L 26.890625 0 L 11.890625 0 L 11.890625 -0.609375 C 13.328125 -0.554688 14.40625 -1.132812 15.125 -2.34375 C 15.84375 -3.5625 16.203125 -5.941406 16.203125 -9.484375 L 16.203125 -44.765625 L 14.453125 -44.765625 C 12.660156 -44.765625 10.820312 -44.382812 8.9375 -43.625 C 7.050781 -42.863281 5.359375 -41.8125 3.859375 -40.46875 C 2.359375 -39.125 1.273438 -37.578125 0.609375 -35.828125 L 0 -35.828125 L 2.75 -45.984375 L 35.96875 -45.984375 L 38.78125 -35.828125 L 38.1875 -35.828125 C 37.507812 -37.578125 36.40625 -39.125 34.875 -40.46875 C 33.351562 -41.8125 31.660156 -42.863281 29.796875 -43.625 C 27.941406 -44.382812 26.097656 -44.765625 24.265625 -44.765625 L 22.578125 -44.765625 Z M 22.578125 -9.484375 "/></g></g></g><g fill="#ffffff" fill-opacity="1"><g transform="translate(394.471413, 411.991698)"><g><path d="M 0 0 L 0 -0.609375 C 1.4375 -0.554688 2.507812 -1.132812 3.21875 -2.34375 C 3.9375 -3.5625 4.296875 -5.941406 4.296875 -9.484375 L 4.296875 -36.4375 C 4.296875 -40.019531 3.9375 -42.425781 3.21875 -43.65625 C 2.507812 -44.882812 1.4375 -45.457031 0 -45.375 L 0 -45.984375 L 34.625 -45.984375 L 37.4375 -35.828125 L 36.828125 -35.828125 C 36.160156 -37.578125 35.0625 -39.125 33.53125 -40.46875 C 32.007812 -41.8125 30.316406 -42.863281 28.453125 -43.625 C 26.597656 -44.382812 24.753906 -44.765625 22.921875 -44.765625 L 10.6875 -44.765625 L 10.6875 -21.4375 C 11.851562 -24 13.398438 -25.582031 15.328125 -26.1875 C 17.253906 -26.789062 19.5625 -26.644531 22.25 -25.75 C 23.375 -25.382812 24.503906 -25.007812 25.640625 -24.625 C 26.785156 -24.25 27.882812 -24.160156 28.9375 -24.359375 C 29.988281 -24.566406 30.941406 -25.320312 31.796875 -26.625 L 32.328125 -26.34375 C 31.210938 -23.03125 29.632812 -20.9375 27.59375 -20.0625 C 25.550781 -19.1875 23.050781 -19.242188 20.09375 -20.234375 C 19.019531 -20.585938 17.910156 -20.941406 16.765625 -21.296875 C 15.628906 -21.660156 14.546875 -21.765625 13.515625 -21.609375 C 12.484375 -21.453125 11.539062 -20.769531 10.6875 -19.5625 L 10.6875 -1.203125 L 22.515625 -1.203125 C 24.710938 -1.203125 26.910156 -1.679688 29.109375 -2.640625 C 31.304688 -3.609375 33.285156 -4.910156 35.046875 -6.546875 C 36.816406 -8.179688 38.109375 -10.03125 38.921875 -12.09375 L 39.453125 -12.09375 L 35.625 0 Z M 0 0 "/></g></g></g><g fill="#ffffff" fill-opacity="1"><g transform="translate(439.8445, 411.991698)"><g><path d="M 10.6875 -9.484375 C 10.6875 -5.941406 11.046875 -3.5625 11.765625 -2.34375 C 12.484375 -1.132812 13.554688 -0.554688 14.984375 -0.609375 L 14.984375 0 L 0 0 L 0 -0.609375 C 1.4375 -0.554688 2.507812 -1.132812 3.21875 -2.34375 C 3.9375 -3.5625 4.296875 -5.941406 4.296875 -9.484375 L 4.296875 -36.4375 C 4.296875 -40.019531 3.9375 -42.425781 3.21875 -43.65625 C 2.507812 -44.882812 1.4375 -45.457031 0 -45.375 L 0 -45.984375 L 25.078125 -45.984375 C 26.910156 -45.984375 28.742188 -45.722656 30.578125 -45.203125 C 32.421875 -44.691406 33.96875 -43.804688 35.21875 -42.546875 C 36.476562 -41.296875 37.109375 -39.570312 37.109375 -37.375 C 37.109375 -35.175781 36.46875 -33.378906 35.1875 -31.984375 C 33.90625 -30.597656 32.269531 -29.457031 30.28125 -28.5625 C 28.289062 -27.664062 26.238281 -26.835938 24.125 -26.078125 C 26.050781 -25.898438 27.578125 -25.335938 28.703125 -24.390625 C 29.828125 -23.453125 30.632812 -22.242188 31.125 -20.765625 C 31.4375 -19.828125 31.835938 -18.5625 32.328125 -16.96875 C 32.828125 -15.382812 33.363281 -13.71875 33.9375 -11.96875 C 34.519531 -10.21875 35.125 -8.613281 35.75 -7.15625 C 36.382812 -5.695312 36.992188 -4.632812 37.578125 -3.96875 C 38.066406 -3.425781 38.660156 -3.007812 39.359375 -2.71875 C 40.054688 -2.425781 40.738281 -2.570312 41.40625 -3.15625 L 41.875 -2.75 C 41.425781 -1.769531 40.753906 -1.066406 39.859375 -0.640625 C 38.960938 -0.210938 38.019531 0 37.03125 0 C 35.375 0 34.03125 -0.390625 33 -1.171875 C 31.96875 -1.960938 31.140625 -2.960938 30.515625 -4.171875 C 29.710938 -5.648438 29.007812 -7.304688 28.40625 -9.140625 C 27.800781 -10.972656 27.25 -12.804688 26.75 -14.640625 C 26.257812 -16.484375 25.722656 -18.164062 25.140625 -19.6875 C 24.421875 -21.707031 23.476562 -23.097656 22.3125 -23.859375 C 21.144531 -24.617188 19.535156 -24.507812 17.484375 -23.53125 C 16.222656 -22.945312 14.953125 -22.140625 13.671875 -21.109375 C 12.398438 -20.078125 11.40625 -19.15625 10.6875 -18.34375 Z M 10.6875 -44.765625 L 10.6875 -20.09375 C 11.582031 -20.988281 12.554688 -21.816406 13.609375 -22.578125 C 14.660156 -23.347656 15.769531 -24.085938 16.9375 -24.796875 C 18.007812 -25.515625 19.316406 -26.3125 20.859375 -27.1875 C 22.410156 -28.0625 23.9375 -29.015625 25.4375 -30.046875 C 26.9375 -31.078125 28.179688 -32.21875 29.171875 -33.46875 C 30.160156 -34.726562 30.65625 -36.117188 30.65625 -37.640625 C 30.695312 -39.660156 30.15625 -41.171875 29.03125 -42.171875 C 27.914062 -43.179688 26.53125 -43.863281 24.875 -44.21875 C 23.21875 -44.582031 21.601562 -44.765625 20.03125 -44.765625 Z M 10.6875 -44.765625 "/></g></g></g><g fill="#ffffff" fill-opacity="1"><g transform="translate(487.771896, 411.991698)"><g><path d="M 14.984375 -45.984375 L 14.984375 -45.375 C 13.554688 -45.457031 12.484375 -44.882812 11.765625 -43.65625 C 11.046875 -42.425781 10.6875 -40.019531 10.6875 -36.4375 L 10.6875 -9.484375 C 10.6875 -5.941406 11.046875 -3.5625 11.765625 -2.34375 C 12.484375 -1.132812 13.554688 -0.554688 14.984375 -0.609375 L 14.984375 0 L 0 0 L 0 -0.609375 C 1.4375 -0.554688 2.507812 -1.132812 3.21875 -2.34375 C 3.9375 -3.5625 4.296875 -5.941406 4.296875 -9.484375 L 4.296875 -36.4375 C 4.296875 -40.019531 3.9375 -42.425781 3.21875 -43.65625 C 2.507812 -44.882812 1.4375 -45.457031 0 -45.375 L 0 -45.984375 Z M 14.984375 -45.984375 "/></g></g></g><g fill="#ffffff" fill-opacity="1"><g transform="translate(508.744612, 411.991698)"><g><path d="M 25.8125 -45.984375 L 40.59375 -3.765625 C 40.957031 -2.734375 41.453125 -1.925781 42.078125 -1.34375 C 42.703125 -0.757812 43.617188 -0.488281 44.828125 -0.53125 L 44.828125 0 L 31.25 0 L 31.25 -0.53125 C 32.414062 -0.488281 33.234375 -0.734375 33.703125 -1.265625 C 34.179688 -1.804688 34.238281 -2.640625 33.875 -3.765625 L 29.3125 -16.734375 C 28.144531 -14.273438 26.597656 -12.738281 24.671875 -12.125 C 22.742188 -11.519531 20.4375 -11.644531 17.75 -12.5 C 17.070312 -12.726562 16.273438 -13 15.359375 -13.3125 C 14.441406 -13.625 13.5 -13.832031 12.53125 -13.9375 C 11.570312 -14.050781 10.695312 -13.941406 9.90625 -13.609375 C 9.125 -13.273438 8.554688 -12.570312 8.203125 -11.5 L 6.796875 -7.734375 C 6.609375 -7.148438 6.515625 -6.597656 6.515625 -6.078125 C 6.515625 -5.566406 6.609375 -5.019531 6.796875 -4.4375 C 6.878906 -4.207031 6.960938 -3.957031 7.046875 -3.6875 C 7.140625 -3.425781 7.210938 -3.179688 7.265625 -2.953125 C 7.617188 -1.972656 8.117188 -1.3125 8.765625 -0.96875 C 9.421875 -0.632812 10.285156 -0.488281 11.359375 -0.53125 L 11.359375 0 C 9.703125 0 7.785156 0 5.609375 0 C 3.441406 0 1.570312 0 0 0 L 0 -0.53125 C 1.070312 -0.488281 1.941406 -0.734375 2.609375 -1.265625 C 3.285156 -1.804688 3.78125 -2.550781 4.09375 -3.5 L 19.015625 -45.984375 Z M 28.90625 -18.078125 L 19.6875 -44.234375 L 9.75 -16.0625 C 10.914062 -17.582031 12.347656 -18.488281 14.046875 -18.78125 C 15.753906 -19.070312 17.703125 -18.835938 19.890625 -18.078125 C 20.921875 -17.765625 21.972656 -17.425781 23.046875 -17.0625 C 24.128906 -16.707031 25.171875 -16.5625 26.171875 -16.625 C 27.179688 -16.695312 28.09375 -17.179688 28.90625 -18.078125 Z M 28.90625 -18.078125 "/></g></g></g><g fill="#ffffff" fill-opacity="1"><g transform="translate(250.631389, 443.567852)"><g/></g></g><g fill="#ffffff" fill-opacity="1"><g transform="translate(263.544296, 443.567852)"><g><path d="M 0 0 L 0 -0.28125 C 0.65625 -0.257812 1.144531 -0.523438 1.46875 -1.078125 C 1.800781 -1.628906 1.96875 -2.710938 1.96875 -4.328125 L 1.96875 -16.625 C 1.96875 -18.257812 1.800781 -19.359375 1.46875 -19.921875 C 1.144531 -20.484375 0.65625 -20.742188 0 -20.703125 L 0 -20.984375 L 7.96875 -20.984375 C 9.195312 -20.984375 10.410156 -20.859375 11.609375 -20.609375 C 12.804688 -20.367188 13.890625 -19.894531 14.859375 -19.1875 C 15.828125 -18.476562 16.597656 -17.429688 17.171875 -16.046875 C 17.742188 -14.671875 18.03125 -12.859375 18.03125 -10.609375 C 18.03125 -8.359375 17.742188 -6.535156 17.171875 -5.140625 C 16.597656 -3.753906 15.832031 -2.6875 14.875 -1.9375 C 13.914062 -1.195312 12.835938 -0.6875 11.640625 -0.40625 C 10.441406 -0.132812 9.21875 0 7.96875 0 Z M 4.875 -20.421875 L 4.875 -0.546875 L 8.828125 -0.546875 C 10.242188 -0.546875 11.414062 -0.976562 12.34375 -1.84375 C 13.269531 -2.71875 13.960938 -3.914062 14.421875 -5.4375 C 14.890625 -6.96875 15.125 -8.691406 15.125 -10.609375 C 15.125 -12.554688 14.882812 -14.265625 14.40625 -15.734375 C 13.9375 -17.203125 13.238281 -18.347656 12.3125 -19.171875 C 11.382812 -20.003906 10.222656 -20.421875 8.828125 -20.421875 Z M 4.875 -20.421875 "/></g></g></g><g fill="#ffffff" fill-opacity="1"><g transform="translate(286.452757, 443.567852)"><g><path d="M 11.78125 -20.984375 L 18.53125 -1.71875 C 18.6875 -1.25 18.90625 -0.878906 19.1875 -0.609375 C 19.476562 -0.347656 19.898438 -0.226562 20.453125 -0.25 L 20.453125 0 L 14.265625 0 L 14.265625 -0.25 C 14.796875 -0.226562 15.164062 -0.335938 15.375 -0.578125 C 15.59375 -0.828125 15.617188 -1.207031 15.453125 -1.71875 L 13.375 -7.640625 C 12.84375 -6.515625 12.132812 -5.8125 11.25 -5.53125 C 10.375 -5.257812 9.320312 -5.316406 8.09375 -5.703125 C 7.789062 -5.804688 7.425781 -5.925781 7 -6.0625 C 6.582031 -6.207031 6.15625 -6.304688 5.71875 -6.359375 C 5.28125 -6.410156 4.878906 -6.359375 4.515625 -6.203125 C 4.160156 -6.054688 3.898438 -5.738281 3.734375 -5.25 L 3.09375 -3.53125 C 3.007812 -3.257812 2.96875 -3.003906 2.96875 -2.765625 C 2.96875 -2.535156 3.007812 -2.289062 3.09375 -2.03125 C 3.132812 -1.925781 3.175781 -1.8125 3.21875 -1.6875 C 3.257812 -1.5625 3.289062 -1.445312 3.3125 -1.34375 C 3.476562 -0.894531 3.707031 -0.59375 4 -0.4375 C 4.300781 -0.289062 4.695312 -0.226562 5.1875 -0.25 L 5.1875 0 C 4.425781 0 3.550781 0 2.5625 0 C 1.570312 0 0.71875 0 0 0 L 0 -0.25 C 0.488281 -0.226562 0.882812 -0.335938 1.1875 -0.578125 C 1.5 -0.828125 1.726562 -1.164062 1.875 -1.59375 L 8.6875 -20.984375 Z M 13.1875 -8.25 L 8.984375 -20.1875 L 4.453125 -7.328125 C 4.984375 -8.023438 5.632812 -8.4375 6.40625 -8.5625 C 7.1875 -8.695312 8.078125 -8.59375 9.078125 -8.25 C 9.546875 -8.101562 10.023438 -7.945312 10.515625 -7.78125 C 11.003906 -7.625 11.476562 -7.5625 11.9375 -7.59375 C 12.40625 -7.625 12.820312 -7.84375 13.1875 -8.25 Z M 13.1875 -8.25 "/></g></g></g><g fill="#ffffff" fill-opacity="1"><g transform="translate(311.753242, 443.567852)"><g/></g></g><g fill="#ffffff" fill-opacity="1"><g transform="translate(324.664281, 443.567852)"><g><path d="M 0 -1.34375 L 1.078125 -4.140625 C 1.335938 -3.691406 1.675781 -3.207031 2.09375 -2.6875 C 2.519531 -2.164062 2.972656 -1.71875 3.453125 -1.34375 C 3.929688 -0.976562 4.394531 -0.773438 4.84375 -0.734375 C 5.601562 -0.648438 6.117188 -0.910156 6.390625 -1.515625 C 6.671875 -2.117188 6.8125 -2.832031 6.8125 -3.65625 L 6.8125 -16.625 C 6.8125 -18.257812 6.644531 -19.359375 6.3125 -19.921875 C 5.988281 -20.484375 5.5 -20.742188 4.84375 -20.703125 L 4.84375 -20.984375 L 11.6875 -20.984375 L 11.6875 -20.703125 C 11.03125 -20.742188 10.535156 -20.484375 10.203125 -19.921875 C 9.878906 -19.359375 9.71875 -18.257812 9.71875 -16.625 L 9.71875 -5.421875 C 9.71875 -4.296875 9.457031 -3.328125 8.9375 -2.515625 C 8.414062 -1.710938 7.695312 -1.09375 6.78125 -0.65625 C 5.875 -0.21875 4.851562 0 3.71875 0 C 2.976562 0 2.316406 -0.109375 1.734375 -0.328125 C 1.148438 -0.554688 0.570312 -0.894531 0 -1.34375 Z M 0 -1.34375 "/></g></g></g><g fill="#ffffff" fill-opacity="1"><g transform="translate(341.194024, 443.567852)"><g><path d="M 11.78125 -20.984375 L 18.53125 -1.71875 C 18.6875 -1.25 18.90625 -0.878906 19.1875 -0.609375 C 19.476562 -0.347656 19.898438 -0.226562 20.453125 -0.25 L 20.453125 0 L 14.265625 0 L 14.265625 -0.25 C 14.796875 -0.226562 15.164062 -0.335938 15.375 -0.578125 C 15.59375 -0.828125 15.617188 -1.207031 15.453125 -1.71875 L 13.375 -7.640625 C 12.84375 -6.515625 12.132812 -5.8125 11.25 -5.53125 C 10.375 -5.257812 9.320312 -5.316406 8.09375 -5.703125 C 7.789062 -5.804688 7.425781 -5.925781 7 -6.0625 C 6.582031 -6.207031 6.15625 -6.304688 5.71875 -6.359375 C 5.28125 -6.410156 4.878906 -6.359375 4.515625 -6.203125 C 4.160156 -6.054688 3.898438 -5.738281 3.734375 -5.25 L 3.09375 -3.53125 C 3.007812 -3.257812 2.96875 -3.003906 2.96875 -2.765625 C 2.96875 -2.535156 3.007812 -2.289062 3.09375 -2.03125 C 3.132812 -1.925781 3.175781 -1.8125 3.21875 -1.6875 C 3.257812 -1.5625 3.289062 -1.445312 3.3125 -1.34375 C 3.476562 -0.894531 3.707031 -0.59375 4 -0.4375 C 4.300781 -0.289062 4.695312 -0.226562 5.1875 -0.25 L 5.1875 0 C 4.425781 0 3.550781 0 2.5625 0 C 1.570312 0 0.71875 0 0 0 L 0 -0.25 C 0.488281 -0.226562 0.882812 -0.335938 1.1875 -0.578125 C 1.5 -0.828125 1.726562 -1.164062 1.875 -1.59375 L 8.6875 -20.984375 Z M 13.1875 -8.25 L 8.984375 -20.1875 L 4.453125 -7.328125 C 4.984375 -8.023438 5.632812 -8.4375 6.40625 -8.5625 C 7.1875 -8.695312 8.078125 -8.59375 9.078125 -8.25 C 9.546875 -8.101562 10.023438 -7.945312 10.515625 -7.78125 C 11.003906 -7.625 11.476562 -7.5625 11.9375 -7.59375 C 12.40625 -7.625 12.820312 -7.84375 13.1875 -8.25 Z M 13.1875 -8.25 "/></g></g></g><g fill="#ffffff" fill-opacity="1"><g transform="translate(366.494505, 443.567852)"><g><path d="M 18.671875 -4.328125 L 18.671875 -19.328125 L 11.90625 0 L 8.765625 0 L 2.515625 -17.96875 L 2.515625 -4.328125 C 2.515625 -2.710938 2.675781 -1.628906 3 -1.078125 C 3.332031 -0.523438 3.828125 -0.257812 4.484375 -0.28125 L 4.484375 0 L 0 0 L 0 -0.28125 C 0.65625 -0.257812 1.144531 -0.523438 1.46875 -1.078125 C 1.800781 -1.628906 1.96875 -2.710938 1.96875 -4.328125 L 1.96875 -16.625 C 1.96875 -18.257812 1.800781 -19.359375 1.46875 -19.921875 C 1.144531 -20.484375 0.65625 -20.742188 0 -20.703125 L 0 -20.984375 L 4.5625 -20.984375 L 11.59375 -0.765625 L 18.671875 -20.984375 L 23.5625 -20.984375 L 23.5625 -20.703125 C 22.90625 -20.742188 22.410156 -20.484375 22.078125 -19.921875 C 21.753906 -19.359375 21.59375 -18.257812 21.59375 -16.625 L 21.59375 -4.328125 C 21.59375 -2.710938 21.753906 -1.628906 22.078125 -1.078125 C 22.410156 -0.523438 22.90625 -0.257812 23.5625 -0.28125 L 23.5625 0 L 16.71875 0 L 16.71875 -0.28125 C 17.375 -0.257812 17.863281 -0.523438 18.1875 -1.078125 C 18.507812 -1.628906 18.671875 -2.710938 18.671875 -4.328125 Z M 18.671875 -4.328125 "/></g></g></g><g fill="#ffffff" fill-opacity="1"><g transform="translate(394.861682, 443.567852)"><g><path d="M 0 0 L 0 -0.28125 C 0.65625 -0.257812 1.144531 -0.523438 1.46875 -1.078125 C 1.800781 -1.628906 1.96875 -2.710938 1.96875 -4.328125 L 1.96875 -16.625 C 1.96875 -18.257812 1.800781 -19.359375 1.46875 -19.921875 C 1.144531 -20.484375 0.65625 -20.742188 0 -20.703125 L 0 -20.984375 L 15.796875 -20.984375 L 17.078125 -16.34375 L 16.8125 -16.34375 C 16.5 -17.144531 15.992188 -17.851562 15.296875 -18.46875 C 14.609375 -19.082031 13.835938 -19.5625 12.984375 -19.90625 C 12.140625 -20.25 11.296875 -20.421875 10.453125 -20.421875 L 4.875 -20.421875 L 4.875 -9.78125 C 5.40625 -10.945312 6.109375 -11.664062 6.984375 -11.9375 C 7.867188 -12.21875 8.925781 -12.15625 10.15625 -11.75 C 10.664062 -11.582031 11.179688 -11.410156 11.703125 -11.234375 C 12.222656 -11.066406 12.722656 -11.023438 13.203125 -11.109375 C 13.679688 -11.203125 14.113281 -11.546875 14.5 -12.140625 L 14.75 -12.015625 C 14.238281 -10.503906 13.515625 -9.550781 12.578125 -9.15625 C 11.648438 -8.757812 10.515625 -8.785156 9.171875 -9.234375 C 8.679688 -9.398438 8.175781 -9.5625 7.65625 -9.71875 C 7.132812 -9.882812 6.632812 -9.929688 6.15625 -9.859375 C 5.6875 -9.785156 5.257812 -9.472656 4.875 -8.921875 L 4.875 -0.546875 L 10.28125 -0.546875 C 11.28125 -0.546875 12.28125 -0.765625 13.28125 -1.203125 C 14.28125 -1.648438 15.179688 -2.242188 15.984375 -2.984375 C 16.796875 -3.734375 17.390625 -4.578125 17.765625 -5.515625 L 18 -5.515625 L 16.25 0 Z M 0 0 "/></g></g></g><g fill="#ffffff" fill-opacity="1"><g transform="translate(417.647472, 443.567852)"><g><path d="M 0.28125 -8.46875 C 0.664062 -6.894531 1.289062 -5.507812 2.15625 -4.3125 C 3.03125 -3.113281 4.066406 -2.1875 5.265625 -1.53125 C 6.472656 -0.875 7.753906 -0.546875 9.109375 -0.546875 C 9.703125 -0.546875 10.332031 -0.617188 11 -0.765625 C 11.675781 -0.910156 12.3125 -1.132812 12.90625 -1.4375 C 13.5 -1.75 13.992188 -2.164062 14.390625 -2.6875 C 14.796875 -3.207031 15.007812 -3.851562 15.03125 -4.625 C 15.070312 -5.550781 14.816406 -6.375 14.265625 -7.09375 C 13.710938 -7.820312 13.046875 -8.359375 12.265625 -8.703125 C 11.410156 -9.117188 10.488281 -9.425781 9.5 -9.625 C 8.519531 -9.832031 7.53125 -10.039062 6.53125 -10.25 C 5.53125 -10.46875 4.570312 -10.773438 3.65625 -11.171875 C 3.101562 -11.410156 2.546875 -11.710938 1.984375 -12.078125 C 1.421875 -12.453125 0.945312 -12.910156 0.5625 -13.453125 C 0.1875 -13.992188 0 -14.617188 0 -15.328125 C 0 -16.046875 0.171875 -16.695312 0.515625 -17.28125 C 0.867188 -17.863281 1.3125 -18.375 1.84375 -18.8125 C 2.375 -19.257812 2.90625 -19.613281 3.4375 -19.875 C 4.1875 -20.238281 4.984375 -20.515625 5.828125 -20.703125 C 6.679688 -20.890625 7.550781 -20.984375 8.4375 -20.984375 C 10.007812 -20.984375 11.539062 -20.734375 13.03125 -20.234375 C 14.53125 -19.742188 15.832031 -19.050781 16.9375 -18.15625 L 15.796875 -15.1875 C 14.773438 -16.675781 13.769531 -17.847656 12.78125 -18.703125 C 11.800781 -19.566406 10.648438 -20.101562 9.328125 -20.3125 C 8.304688 -20.46875 7.265625 -20.425781 6.203125 -20.1875 C 5.148438 -19.957031 4.238281 -19.453125 3.46875 -18.671875 C 2.707031 -17.878906 2.414062 -17.054688 2.59375 -16.203125 C 2.769531 -15.359375 3.390625 -14.648438 4.453125 -14.078125 C 5.285156 -13.648438 6.203125 -13.316406 7.203125 -13.078125 C 8.203125 -12.847656 9.222656 -12.625 10.265625 -12.40625 C 11.316406 -12.1875 12.300781 -11.898438 13.21875 -11.546875 C 14.132812 -11.191406 14.921875 -10.664062 15.578125 -9.96875 C 16.148438 -9.351562 16.535156 -8.609375 16.734375 -7.734375 C 16.941406 -6.867188 16.972656 -5.984375 16.828125 -5.078125 C 16.691406 -4.179688 16.378906 -3.398438 15.890625 -2.734375 C 15.398438 -2.054688 14.769531 -1.515625 14 -1.109375 C 13.226562 -0.710938 12.410156 -0.425781 11.546875 -0.25 C 10.679688 -0.0820312 9.816406 0 8.953125 0 C 7.273438 0 5.671875 -0.265625 4.140625 -0.796875 C 2.609375 -1.328125 1.226562 -2.132812 0 -3.21875 L 0 -8.46875 Z M 0.28125 -8.46875 "/></g></g></g><g fill="#ffffff" fill-opacity="1"><g transform="translate(439.451925, 443.567852)"><g/></g></g><g fill="#ffffff" fill-opacity="1"><g transform="translate(452.362969, 443.567852)"><g><path d="M 0 -1.34375 L 1.078125 -4.140625 C 1.335938 -3.691406 1.675781 -3.207031 2.09375 -2.6875 C 2.519531 -2.164062 2.972656 -1.71875 3.453125 -1.34375 C 3.929688 -0.976562 4.394531 -0.773438 4.84375 -0.734375 C 5.601562 -0.648438 6.117188 -0.910156 6.390625 -1.515625 C 6.671875 -2.117188 6.8125 -2.832031 6.8125 -3.65625 L 6.8125 -16.625 C 6.8125 -18.257812 6.644531 -19.359375 6.3125 -19.921875 C 5.988281 -20.484375 5.5 -20.742188 4.84375 -20.703125 L 4.84375 -20.984375 L 11.6875 -20.984375 L 11.6875 -20.703125 C 11.03125 -20.742188 10.535156 -20.484375 10.203125 -19.921875 C 9.878906 -19.359375 9.71875 -18.257812 9.71875 -16.625 L 9.71875 -5.421875 C 9.71875 -4.296875 9.457031 -3.328125 8.9375 -2.515625 C 8.414062 -1.710938 7.695312 -1.09375 6.78125 -0.65625 C 5.875 -0.21875 4.851562 0 3.71875 0 C 2.976562 0 2.316406 -0.109375 1.734375 -0.328125 C 1.148438 -0.554688 0.570312 -0.894531 0 -1.34375 Z M 0 -1.34375 "/></g></g></g><g fill="#ffffff" fill-opacity="1"><g transform="translate(468.892707, 443.567852)"><g><path d="M 10.484375 -20.984375 C 9.035156 -20.984375 7.675781 -20.710938 6.40625 -20.171875 C 5.144531 -19.628906 4.03125 -18.875 3.0625 -17.90625 C 2.101562 -16.945312 1.351562 -15.832031 0.8125 -14.5625 C 0.269531 -13.300781 0 -11.941406 0 -10.484375 C 0 -9.035156 0.269531 -7.675781 0.8125 -6.40625 C 1.351562 -5.144531 2.101562 -4.03125 3.0625 -3.0625 C 4.03125 -2.101562 5.144531 -1.351562 6.40625 -0.8125 C 7.675781 -0.269531 9.035156 0 10.484375 0 C 11.941406 0 13.300781 -0.269531 14.5625 -0.8125 C 15.832031 -1.351562 16.945312 -2.101562 17.90625 -3.0625 C 18.875 -4.03125 19.628906 -5.144531 20.171875 -6.40625 C 20.710938 -7.675781 20.984375 -9.035156 20.984375 -10.484375 C 20.984375 -11.941406 20.710938 -13.300781 20.171875 -14.5625 C 19.628906 -15.832031 18.875 -16.945312 17.90625 -17.90625 C 16.945312 -18.875 15.832031 -19.628906 14.5625 -20.171875 C 13.300781 -20.710938 11.941406 -20.984375 10.484375 -20.984375 Z M 7.109375 -19.8125 C 8.097656 -20.15625 9.101562 -20.238281 10.125 -20.0625 C 11.144531 -19.894531 12.132812 -19.5 13.09375 -18.875 C 14.050781 -18.25 14.921875 -17.441406 15.703125 -16.453125 C 16.484375 -15.460938 17.109375 -14.320312 17.578125 -13.03125 C 18.046875 -11.75 18.300781 -10.476562 18.34375 -9.21875 C 18.382812 -7.957031 18.226562 -6.78125 17.875 -5.6875 C 17.53125 -4.59375 17.019531 -3.644531 16.34375 -2.84375 C 15.664062 -2.050781 14.835938 -1.484375 13.859375 -1.140625 C 12.878906 -0.785156 11.875 -0.695312 10.84375 -0.875 C 9.8125 -1.050781 8.816406 -1.445312 7.859375 -2.0625 C 6.910156 -2.6875 6.046875 -3.492188 5.265625 -4.484375 C 4.492188 -5.484375 3.875 -6.625 3.40625 -7.90625 C 2.9375 -9.195312 2.679688 -10.476562 2.640625 -11.75 C 2.597656 -13.019531 2.742188 -14.195312 3.078125 -15.28125 C 3.421875 -16.363281 3.929688 -17.300781 4.609375 -18.09375 C 5.296875 -18.894531 6.128906 -19.46875 7.109375 -19.8125 Z M 7.109375 -19.8125 "/></g></g></g><g fill="#ffffff" fill-opacity="1"><g transform="translate(494.745184, 443.567852)"><g><path d="M 5.390625 -19.203125 L 9.390625 -12.015625 L 13.671875 -18.375 C 13.898438 -18.695312 13.941406 -19.023438 13.796875 -19.359375 C 13.773438 -19.398438 13.757812 -19.441406 13.75 -19.484375 C 13.738281 -19.535156 13.722656 -19.582031 13.703125 -19.625 C 13.566406 -20.082031 13.347656 -20.378906 13.046875 -20.515625 C 12.753906 -20.660156 12.375 -20.722656 11.90625 -20.703125 L 11.90625 -20.984375 L 17.109375 -20.984375 L 17.109375 -20.703125 C 16.492188 -20.722656 16.003906 -20.519531 15.640625 -20.09375 C 15.273438 -19.664062 14.9375 -19.222656 14.625 -18.765625 L 10 -12 L 10 -4.328125 C 10 -2.710938 10.160156 -1.628906 10.484375 -1.078125 C 10.816406 -0.523438 11.320312 -0.257812 12 -0.28125 L 12 0 L 5.125 0 L 5.125 -0.28125 C 5.78125 -0.257812 6.269531 -0.523438 6.59375 -1.078125 C 6.914062 -1.628906 7.078125 -2.710938 7.078125 -4.328125 L 7.078125 -10.125 L 2.328125 -18.734375 C 2.066406 -19.242188 1.773438 -19.707031 1.453125 -20.125 C 1.140625 -20.550781 0.65625 -20.742188 0 -20.703125 L 0 -20.984375 L 6.140625 -20.984375 L 6.140625 -20.703125 C 5.628906 -20.722656 5.316406 -20.582031 5.203125 -20.28125 C 5.085938 -19.988281 5.148438 -19.628906 5.390625 -19.203125 Z M 5.390625 -19.203125 "/></g></g></g><g fill="#ffffff" fill-opacity="1"><g transform="translate(516.641645, 443.567852)"><g><path d="M 18.40625 -18.15625 L 17.265625 -15.1875 C 16.203125 -16.78125 15.09375 -17.972656 13.9375 -18.765625 C 12.78125 -19.566406 11.625 -20.035156 10.46875 -20.171875 C 9.3125 -20.316406 8.191406 -20.195312 7.109375 -19.8125 C 5.953125 -19.382812 5.035156 -18.71875 4.359375 -17.8125 C 3.679688 -16.914062 3.210938 -15.894531 2.953125 -14.75 C 2.703125 -13.601562 2.625 -12.429688 2.71875 -11.234375 C 2.8125 -10.046875 3.039062 -8.9375 3.40625 -7.90625 C 3.9375 -6.4375 4.765625 -5.1875 5.890625 -4.15625 C 7.015625 -3.125 8.304688 -2.390625 9.765625 -1.953125 C 11.234375 -1.523438 12.734375 -1.5 14.265625 -1.875 C 15.160156 -2.09375 16 -2.457031 16.78125 -2.96875 C 17.570312 -3.476562 18.253906 -4.144531 18.828125 -4.96875 L 19.046875 -4.8125 C 18.148438 -3.195312 16.9375 -1.988281 15.40625 -1.1875 C 13.882812 -0.394531 12.273438 0 10.578125 0 C 9.085938 0 7.695312 -0.257812 6.40625 -0.78125 C 5.125 -1.300781 4 -2.035156 3.03125 -2.984375 C 2.070312 -3.941406 1.328125 -5.054688 0.796875 -6.328125 C 0.265625 -7.609375 0 -8.992188 0 -10.484375 C 0 -11.960938 0.273438 -13.332031 0.828125 -14.59375 C 1.378906 -15.863281 2.140625 -16.976562 3.109375 -17.9375 C 4.078125 -18.90625 5.203125 -19.65625 6.484375 -20.1875 C 7.765625 -20.71875 9.128906 -20.984375 10.578125 -20.984375 C 12.015625 -20.984375 13.421875 -20.734375 14.796875 -20.234375 C 16.179688 -19.742188 17.382812 -19.050781 18.40625 -18.15625 Z M 18.40625 -18.15625 "/></g></g></g><g fill="#ffffff" fill-opacity="1"><g transform="translate(540.500779, 443.567852)"><g><path d="M 0 0 L 0 -0.28125 C 0.65625 -0.257812 1.144531 -0.523438 1.46875 -1.078125 C 1.800781 -1.628906 1.96875 -2.710938 1.96875 -4.328125 L 1.96875 -16.625 C 1.96875 -18.257812 1.800781 -19.359375 1.46875 -19.921875 C 1.144531 -20.484375 0.65625 -20.742188 0 -20.703125 L 0 -20.984375 L 15.796875 -20.984375 L 17.078125 -16.34375 L 16.8125 -16.34375 C 16.5 -17.144531 15.992188 -17.851562 15.296875 -18.46875 C 14.609375 -19.082031 13.835938 -19.5625 12.984375 -19.90625 C 12.140625 -20.25 11.296875 -20.421875 10.453125 -20.421875 L 4.875 -20.421875 L 4.875 -9.78125 C 5.40625 -10.945312 6.109375 -11.664062 6.984375 -11.9375 C 7.867188 -12.21875 8.925781 -12.15625 10.15625 -11.75 C 10.664062 -11.582031 11.179688 -11.410156 11.703125 -11.234375 C 12.222656 -11.066406 12.722656 -11.023438 13.203125 -11.109375 C 13.679688 -11.203125 14.113281 -11.546875 14.5 -12.140625 L 14.75 -12.015625 C 14.238281 -10.503906 13.515625 -9.550781 12.578125 -9.15625 C 11.648438 -8.757812 10.515625 -8.785156 9.171875 -9.234375 C 8.679688 -9.398438 8.175781 -9.5625 7.65625 -9.71875 C 7.132812 -9.882812 6.632812 -9.929688 6.15625 -9.859375 C 5.6875 -9.785156 5.257812 -9.472656 4.875 -8.921875 L 4.875 -0.546875 L 10.28125 -0.546875 C 11.28125 -0.546875 12.28125 -0.765625 13.28125 -1.203125 C 14.28125 -1.648438 15.179688 -2.242188 15.984375 -2.984375 C 16.796875 -3.734375 17.390625 -4.578125 17.765625 -5.515625 L 18 -5.515625 L 16.25 0 Z M 0 0 "/></g></g></g><g clip-path="url(#461c2f9acc)"><path fill="#d9d9d9" d="M 552.5 382.394531 C 552.5 382.394531 552.46875 382.554688 552.40625 382.863281 C 552.390625 382.9375 552.375 383.027344 552.355469 383.121094 C 552.339844 383.21875 552.339844 383.324219 552.332031 383.441406 C 552.316406 383.675781 552.292969 383.945312 552.332031 384.25 C 552.382812 385.464844 553.039062 387.285156 554.714844 388.910156 C 555.550781 389.710938 556.605469 390.488281 557.890625 391.058594 C 558.53125 391.347656 559.230469 391.566406 559.96875 391.753906 C 560.714844 391.925781 561.496094 392.0625 562.308594 392.164062 C 563.945312 392.363281 565.707031 392.417969 567.589844 392.515625 C 569.46875 392.621094 571.496094 392.757812 573.558594 393.457031 C 574.578125 393.796875 575.589844 394.257812 576.554688 394.863281 C 577.515625 395.46875 578.429688 396.222656 579.191406 397.175781 C 579.945312 398.121094 580.535156 399.285156 580.75 400.570312 C 580.792969 400.890625 580.820312 401.214844 580.839844 401.542969 C 580.839844 401.875 580.824219 402.210938 580.769531 402.542969 C 580.667969 403.207031 580.453125 403.855469 580.144531 404.460938 C 579.523438 405.667969 578.550781 406.679688 577.390625 407.417969 C 576.234375 408.15625 574.882812 408.648438 573.445312 408.75 C 572.730469 408.804688 571.992188 408.761719 571.269531 408.59375 C 570.910156 408.515625 570.546875 408.398438 570.214844 408.253906 L 569.703125 408.039062 L 569.21875 407.773438 C 567.917969 407.054688 566.851562 405.953125 566.054688 404.691406 C 565.246094 403.429688 564.746094 401.976562 564.523438 400.46875 C 564.289062 398.964844 564.4375 397.359375 564.902344 395.871094 C 565.375 394.382812 566.15625 392.988281 567.160156 391.777344 C 568.164062 390.566406 569.371094 389.515625 570.71875 388.675781 C 572.058594 387.816406 573.558594 387.1875 575.105469 386.757812 C 576.65625 386.339844 578.261719 386.117188 579.875 386.074219 C 583.105469 385.984375 586.335938 386.546875 589.449219 387.453125 C 592.570312 388.367188 595.535156 389.605469 598.34375 391.007812 C 601.148438 392.425781 603.804688 393.996094 606.355469 395.609375 C 608.902344 397.230469 611.347656 398.886719 613.738281 400.5 C 616.125 402.113281 618.457031 403.664062 620.847656 404.917969 C 623.234375 406.167969 625.699219 407.128906 628.175781 407.539062 C 630.644531 407.941406 633.144531 407.800781 635.382812 407.109375 C 636.5 406.765625 637.546875 406.273438 638.476562 405.652344 C 639.40625 405.03125 640.214844 404.257812 640.863281 403.417969 C 642.128906 401.703125 642.628906 399.558594 642.523438 397.585938 C 642.464844 396.59375 642.246094 395.636719 641.886719 394.773438 C 641.535156 393.902344 641.039062 393.117188 640.417969 392.480469 C 639.796875 391.851562 639.050781 391.359375 638.261719 391.078125 C 637.46875 390.792969 636.632812 390.695312 635.835938 390.746094 C 634.234375 390.851562 632.777344 391.550781 631.882812 392.609375 C 631.425781 393.132812 631.15625 393.761719 631.003906 394.371094 C 630.878906 394.992188 630.941406 395.613281 631.121094 396.160156 C 631.480469 397.261719 632.210938 398.066406 632.933594 398.578125 C 633.664062 399.097656 634.425781 399.316406 635.035156 399.332031 C 635.652344 399.359375 636.105469 399.183594 636.386719 399.050781 C 636.53125 398.984375 636.628906 398.921875 636.699219 398.878906 C 636.765625 398.835938 636.800781 398.8125 636.800781 398.8125 C 636.800781 398.8125 636.765625 398.835938 636.699219 398.878906 C 636.628906 398.921875 636.53125 398.984375 636.386719 399.050781 C 636.109375 399.183594 635.652344 399.363281 635.035156 399.339844 C 634.421875 399.328125 633.660156 399.117188 632.914062 398.609375 C 632.175781 398.105469 631.417969 397.3125 631.019531 396.191406 C 630.820312 395.636719 630.734375 394.996094 630.84375 394.339844 C 630.984375 393.699219 631.242188 393.035156 631.703125 392.464844 C 632.601562 391.3125 634.097656 390.511719 635.796875 390.316406 C 636.644531 390.21875 637.550781 390.273438 638.4375 390.539062 C 639.332031 390.808594 640.175781 391.300781 640.914062 391.964844 C 641.640625 392.632812 642.265625 393.46875 642.691406 394.425781 C 643.125 395.375 643.363281 396.433594 643.460938 397.519531 C 643.636719 399.683594 643.164062 402.0625 641.769531 404.070312 C 640.351562 406.039062 638.214844 407.53125 635.777344 408.332031 C 633.339844 409.144531 630.644531 409.347656 627.957031 408.964844 C 625.257812 408.570312 622.636719 407.59375 620.125 406.328125 C 617.609375 405.0625 615.203125 403.507812 612.792969 401.917969 C 610.378906 400.335938 607.929688 398.710938 605.398438 397.132812 C 602.867188 395.558594 600.25 394.039062 597.515625 392.671875 C 594.777344 391.320312 591.914062 390.132812 588.925781 389.261719 C 585.941406 388.386719 582.902344 387.863281 579.925781 387.933594 C 578.441406 387.964844 576.980469 388.164062 575.582031 388.527344 C 574.191406 388.90625 572.867188 389.449219 571.671875 390.199219 C 569.265625 391.664062 567.363281 393.871094 566.523438 396.394531 C 565.683594 398.882812 566.09375 401.703125 567.402344 403.855469 C 568.058594 404.933594 568.929688 405.859375 569.976562 406.460938 L 570.367188 406.6875 L 570.78125 406.863281 C 571.054688 406.992188 571.328125 407.085938 571.613281 407.152344 C 572.175781 407.296875 572.765625 407.34375 573.351562 407.308594 C 575.703125 407.183594 577.957031 405.792969 579.007812 403.863281 C 579.53125 402.894531 579.722656 401.816406 579.5625 400.75 C 579.410156 399.691406 578.949219 398.703125 578.308594 397.859375 C 577.671875 397.011719 576.863281 396.304688 575.996094 395.726562 C 575.125 395.144531 574.191406 394.6875 573.246094 394.34375 C 572.300781 393.992188 571.335938 393.792969 570.371094 393.625 C 569.410156 393.453125 568.460938 393.324219 567.53125 393.222656 C 565.671875 393.015625 563.894531 392.867188 562.246094 392.585938 C 561.425781 392.441406 560.636719 392.265625 559.890625 392.058594 C 559.144531 391.839844 558.433594 391.585938 557.792969 391.261719 C 556.503906 390.632812 555.464844 389.816406 554.644531 388.980469 C 552.992188 387.296875 552.367188 385.46875 552.324219 384.25 C 552.285156 383.945312 552.3125 383.675781 552.328125 383.441406 C 552.339844 383.324219 552.339844 383.21875 552.355469 383.121094 C 552.375 383.027344 552.390625 382.9375 552.40625 382.863281 C 552.46875 382.554688 552.5 382.394531 552.5 382.394531 Z M 552.5 382.394531 " fill-opacity="1" fill-rule="nonzero"/></g><g clip-path="url(#e6b7caf8ee)"><path fill="#d9d9d9" d="M 549.402344 390.367188 C 549.402344 390.367188 549.378906 390.445312 549.339844 390.582031 C 549.324219 390.65625 549.296875 390.742188 549.28125 390.851562 C 549.269531 390.957031 549.257812 391.082031 549.246094 391.222656 C 549.246094 391.363281 549.257812 391.515625 549.273438 391.683594 C 549.300781 391.851562 549.332031 392.03125 549.386719 392.21875 C 549.449219 392.40625 549.515625 392.597656 549.625 392.792969 C 549.667969 392.890625 549.726562 392.988281 549.785156 393.085938 C 549.835938 393.183594 549.859375 393.292969 549.921875 393.394531 C 550.128906 393.808594 550.421875 394.226562 550.777344 394.621094 C 551.132812 395.015625 551.5625 395.386719 552.054688 395.6875 C 552.535156 395.980469 553.109375 396.226562 553.722656 396.386719 C 554.335938 396.546875 554.996094 396.640625 555.683594 396.660156 C 556.375 396.675781 557.058594 396.625 557.714844 396.523438 C 558.375 396.425781 559.003906 396.269531 559.609375 396.085938 C 560.816406 395.722656 561.898438 395.257812 562.804688 394.851562 C 562.921875 394.796875 563.023438 394.734375 563.132812 394.6875 C 563.242188 394.640625 563.359375 394.609375 563.46875 394.574219 C 563.6875 394.5 563.890625 394.421875 564.082031 394.347656 C 564.457031 394.195312 564.773438 394.050781 565.023438 393.917969 C 565.523438 393.65625 565.777344 393.472656 565.777344 393.472656 C 565.777344 393.472656 565.515625 393.640625 565.082031 394.007812 C 564.863281 394.1875 564.609375 394.425781 564.316406 394.710938 C 564.167969 394.851562 564.015625 395.007812 563.851562 395.175781 C 563.765625 395.257812 563.6875 395.355469 563.59375 395.433594 C 563.5 395.511719 563.390625 395.574219 563.292969 395.65625 C 562.476562 396.277344 561.453125 396.988281 560.171875 397.570312 C 558.894531 398.15625 557.328125 398.582031 555.632812 398.539062 C 554.789062 398.515625 553.957031 398.367188 553.1875 398.101562 C 552.414062 397.839844 551.71875 397.457031 551.125 396.972656 C 550.535156 396.492188 550.082031 395.9375 549.738281 395.378906 C 549.398438 394.820312 549.167969 394.253906 549.039062 393.71875 C 549.003906 393.585938 548.96875 393.457031 548.949219 393.328125 C 548.925781 393.199219 548.933594 393.070312 548.9375 392.945312 C 548.929688 392.699219 548.953125 392.46875 548.96875 392.257812 C 548.988281 392.046875 549.019531 391.851562 549.046875 391.679688 C 549.082031 391.507812 549.117188 391.351562 549.148438 391.207031 C 549.183594 391.074219 549.214844 390.949219 549.246094 390.84375 C 549.277344 390.738281 549.3125 390.652344 549.332031 390.582031 C 549.375 390.441406 549.402344 390.367188 549.402344 390.367188 Z M 549.402344 390.367188 " fill-opacity="1" fill-rule="nonzero"/></g><g clip-path="url(#d6d2b35326)"><path fill="#d9d9d9" d="M 246.242188 382.394531 C 246.242188 382.394531 246.273438 382.554688 246.335938 382.863281 C 246.351562 382.9375 246.367188 383.027344 246.386719 383.121094 C 246.402344 383.21875 246.402344 383.324219 246.410156 383.441406 C 246.425781 383.675781 246.453125 383.945312 246.414062 384.25 C 246.359375 385.464844 245.707031 387.285156 244.027344 388.910156 C 243.195312 389.710938 242.136719 390.488281 240.851562 391.058594 C 240.210938 391.347656 239.515625 391.566406 238.773438 391.753906 C 238.03125 391.925781 237.25 392.0625 236.433594 392.164062 C 234.800781 392.363281 233.039062 392.417969 231.152344 392.515625 C 229.273438 392.621094 227.25 392.757812 225.1875 393.457031 C 224.164062 393.796875 223.152344 394.257812 222.191406 394.863281 C 221.230469 395.46875 220.3125 396.222656 219.554688 397.175781 C 218.796875 398.121094 218.207031 399.285156 217.992188 400.570312 C 217.953125 400.890625 217.921875 401.214844 217.90625 401.542969 C 217.902344 401.875 217.921875 402.210938 217.976562 402.542969 C 218.074219 403.207031 218.289062 403.855469 218.597656 404.460938 C 219.222656 405.667969 220.195312 406.679688 221.351562 407.417969 C 222.511719 408.15625 223.859375 408.648438 225.296875 408.75 C 226.015625 408.804688 226.75 408.761719 227.472656 408.59375 C 227.835938 408.515625 228.195312 408.398438 228.53125 408.253906 L 229.042969 408.039062 L 229.527344 407.773438 C 230.828125 407.054688 231.894531 405.953125 232.6875 404.691406 C 233.496094 403.429688 234 401.976562 234.21875 400.46875 C 234.457031 398.964844 234.308594 397.359375 233.84375 395.871094 C 233.367188 394.382812 232.585938 392.988281 231.582031 391.777344 C 230.578125 390.566406 229.375 389.515625 228.023438 388.675781 C 226.6875 387.816406 225.183594 387.1875 223.636719 386.757812 C 222.085938 386.339844 220.480469 386.117188 218.867188 386.074219 C 215.636719 385.984375 212.40625 386.546875 209.292969 387.453125 C 206.171875 388.367188 203.207031 389.605469 200.398438 391.007812 C 197.59375 392.425781 194.9375 393.996094 192.386719 395.609375 C 189.839844 397.230469 187.394531 398.886719 185.003906 400.5 C 182.617188 402.113281 180.289062 403.664062 177.894531 404.917969 C 175.507812 406.167969 173.042969 407.128906 170.570312 407.539062 C 168.097656 407.941406 165.597656 407.800781 163.363281 407.109375 C 162.246094 406.765625 161.199219 406.273438 160.269531 405.652344 C 159.339844 405.03125 158.527344 404.257812 157.878906 403.417969 C 156.613281 401.703125 156.113281 399.558594 156.21875 397.585938 C 156.277344 396.59375 156.496094 395.636719 156.859375 394.773438 C 157.207031 393.902344 157.703125 393.117188 158.328125 392.480469 C 158.949219 391.851562 159.695312 391.359375 160.480469 391.078125 C 161.273438 390.792969 162.109375 390.695312 162.910156 390.746094 C 164.507812 390.851562 165.96875 391.550781 166.859375 392.609375 C 167.316406 393.132812 167.585938 393.761719 167.742188 394.371094 C 167.863281 394.992188 167.800781 395.613281 167.625 396.160156 C 167.265625 397.261719 166.53125 398.066406 165.808594 398.578125 C 165.078125 399.097656 164.320312 399.316406 163.707031 399.332031 C 163.089844 399.359375 162.636719 399.183594 162.355469 399.050781 C 162.214844 398.984375 162.113281 398.921875 162.046875 398.878906 C 161.980469 398.835938 161.945312 398.8125 161.945312 398.8125 C 161.945312 398.8125 161.980469 398.835938 162.046875 398.878906 C 162.113281 398.921875 162.210938 398.984375 162.355469 399.050781 C 162.636719 399.183594 163.089844 399.363281 163.707031 399.339844 C 164.320312 399.328125 165.085938 399.117188 165.832031 398.609375 C 166.566406 398.105469 167.324219 397.3125 167.726562 396.191406 C 167.921875 395.636719 168.007812 394.996094 167.898438 394.339844 C 167.761719 393.699219 167.5 393.035156 167.042969 392.464844 C 166.144531 391.3125 164.644531 390.511719 162.949219 390.316406 C 162.101562 390.21875 161.195312 390.273438 160.304688 390.539062 C 159.410156 390.808594 158.566406 391.300781 157.832031 391.964844 C 157.101562 392.632812 156.480469 393.46875 156.054688 394.425781 C 155.621094 395.375 155.378906 396.433594 155.28125 397.519531 C 155.105469 399.683594 155.578125 402.0625 156.976562 404.070312 C 158.390625 406.039062 160.53125 407.53125 162.96875 408.332031 C 165.402344 409.144531 168.097656 409.347656 170.789062 408.964844 C 173.484375 408.570312 176.109375 407.59375 178.621094 406.328125 C 181.132812 405.0625 183.539062 403.507812 185.949219 401.917969 C 188.363281 400.335938 190.816406 398.710938 193.34375 397.132812 C 195.878906 395.558594 198.496094 394.039062 201.226562 392.671875 C 203.964844 391.320312 206.828125 390.132812 209.816406 389.261719 C 212.800781 388.386719 215.84375 387.863281 218.816406 387.933594 C 220.300781 387.964844 221.761719 388.164062 223.160156 388.527344 C 224.554688 388.90625 225.875 389.449219 227.074219 390.199219 C 229.480469 391.664062 231.378906 393.871094 232.21875 396.394531 C 233.058594 398.882812 232.652344 401.703125 231.339844 403.855469 C 230.683594 404.933594 229.8125 405.859375 228.765625 406.460938 L 228.375 406.6875 L 227.964844 406.863281 C 227.6875 406.992188 227.417969 407.085938 227.132812 407.152344 C 226.566406 407.296875 225.976562 407.34375 225.390625 407.308594 C 223.042969 407.183594 220.785156 405.792969 219.734375 403.863281 C 219.210938 402.894531 219.023438 401.816406 219.179688 400.75 C 219.332031 399.691406 219.792969 398.703125 220.433594 397.859375 C 221.074219 397.011719 221.882812 396.304688 222.75 395.726562 C 223.617188 395.144531 224.550781 394.6875 225.496094 394.34375 C 226.441406 393.992188 227.40625 393.792969 228.371094 393.625 C 229.332031 393.453125 230.28125 393.324219 231.210938 393.222656 C 233.070312 393.015625 234.851562 392.867188 236.496094 392.585938 C 237.320312 392.441406 238.105469 392.265625 238.855469 392.058594 C 239.597656 391.839844 240.308594 391.585938 240.949219 391.261719 C 242.238281 390.632812 243.28125 389.816406 244.101562 388.980469 C 245.75 387.296875 246.375 385.46875 246.421875 384.25 C 246.457031 383.945312 246.429688 383.675781 246.414062 383.441406 C 246.40625 383.324219 246.40625 383.21875 246.390625 383.121094 C 246.371094 383.027344 246.351562 382.9375 246.335938 382.863281 C 246.273438 382.554688 246.242188 382.394531 246.242188 382.394531 Z M 246.242188 382.394531 " fill-opacity="1" fill-rule="nonzero"/></g><g clip-path="url(#dc91a6fc98)"><path fill="#d9d9d9" d="M 249.34375 390.367188 C 249.34375 390.367188 249.363281 390.445312 249.402344 390.582031 C 249.421875 390.65625 249.449219 390.742188 249.464844 390.851562 C 249.476562 390.957031 249.484375 391.082031 249.496094 391.222656 C 249.5 391.363281 249.484375 391.515625 249.472656 391.683594 C 249.441406 391.851562 249.410156 392.03125 249.355469 392.21875 C 249.292969 392.40625 249.226562 392.597656 249.121094 392.792969 C 249.074219 392.890625 249.015625 392.988281 248.960938 393.085938 C 248.90625 393.183594 248.882812 393.292969 248.824219 393.394531 C 248.613281 393.808594 248.320312 394.226562 247.964844 394.621094 C 247.609375 395.015625 247.179688 395.386719 246.691406 395.6875 C 246.207031 395.980469 245.632812 396.226562 245.023438 396.386719 C 244.40625 396.546875 243.746094 396.640625 243.058594 396.660156 C 242.367188 396.675781 241.683594 396.625 241.027344 396.523438 C 240.367188 396.425781 239.738281 396.269531 239.132812 396.085938 C 237.925781 395.722656 236.847656 395.257812 235.9375 394.851562 C 235.824219 394.796875 235.71875 394.734375 235.609375 394.6875 C 235.5 394.640625 235.382812 394.609375 235.273438 394.574219 C 235.054688 394.5 234.851562 394.421875 234.664062 394.347656 C 234.289062 394.195312 233.96875 394.050781 233.71875 393.917969 C 233.21875 393.65625 232.964844 393.472656 232.964844 393.472656 C 232.964844 393.472656 233.230469 393.640625 233.660156 394.007812 C 233.878906 394.1875 234.132812 394.425781 234.429688 394.710938 C 234.574219 394.851562 234.730469 395.007812 234.894531 395.175781 C 234.976562 395.257812 235.054688 395.355469 235.152344 395.433594 C 235.246094 395.511719 235.351562 395.574219 235.453125 395.65625 C 236.265625 396.277344 237.289062 396.988281 238.570312 397.570312 C 239.847656 398.15625 241.414062 398.582031 243.109375 398.539062 C 243.957031 398.515625 244.789062 398.367188 245.558594 398.101562 C 246.328125 397.839844 247.023438 397.457031 247.617188 396.972656 C 248.207031 396.492188 248.664062 395.9375 249.003906 395.378906 C 249.34375 394.820312 249.578125 394.253906 249.707031 393.71875 C 249.738281 393.585938 249.773438 393.457031 249.796875 393.328125 C 249.816406 393.199219 249.808594 393.070312 249.808594 392.945312 C 249.8125 392.699219 249.789062 392.46875 249.777344 392.257812 C 249.757812 392.046875 249.722656 391.851562 249.699219 391.679688 C 249.660156 391.507812 249.628906 391.351562 249.597656 391.207031 C 249.558594 391.074219 249.527344 390.949219 249.496094 390.84375 C 249.46875 390.738281 249.433594 390.652344 249.410156 390.582031 C 249.367188 390.441406 249.34375 390.367188 249.34375 390.367188 Z M 249.34375 390.367188 " fill-opacity="1" fill-rule="nonzero"/></g></svg>