<svg xmlns="http://www.w3.org/2000/svg" xmlns:xlink="http://www.w3.org/1999/xlink" width="1080" zoomAndPan="magnify" viewBox="0 0 810 809.999993" height="1080" preserveAspectRatio="xMidYMid meet" version="1.0"><defs><g/><clipPath id="0a91e189e9"><path d="M 647 369.011719 L 792.417969 369.011719 L 792.417969 411.761719 L 647 411.761719 Z M 647 369.011719 " clip-rule="nonzero"/></clipPath><clipPath id="fddfcb3bc9"><path d="M 642.417969 381 L 670 381 L 670 395 L 642.417969 395 Z M 642.417969 381 " clip-rule="nonzero"/></clipPath><clipPath id="93161eb81e"><path d="M 17.574219 369.011719 L 163 369.011719 L 163 411.761719 L 17.574219 411.761719 Z M 17.574219 369.011719 " clip-rule="nonzero"/></clipPath><clipPath id="9320d60a18"><path d="M 140 381 L 167.234375 381 L 167.234375 395 L 140 395 Z M 140 381 " clip-rule="nonzero"/></clipPath></defs><g fill="#ffffff" fill-opacity="1"><g transform="translate(174.826177, 416.099531)"><g><path d="M 36.5 -73 C 31.445312 -73 26.710938 -72.054688 22.296875 -70.171875 C 17.890625 -68.285156 14.015625 -65.671875 10.671875 -62.328125 C 7.328125 -58.984375 4.710938 -55.101562 2.828125 -50.6875 C 0.941406 -46.28125 0 -41.550781 0 -36.5 C 0 -31.445312 0.941406 -26.710938 2.828125 -22.296875 C 4.710938 -17.890625 7.328125 -14.015625 10.671875 -10.671875 C 14.015625 -7.328125 17.890625 -4.710938 22.296875 -2.828125 C 26.710938 -0.941406 31.445312 0 36.5 0 C 41.550781 0 46.28125 -0.941406 50.6875 -2.828125 C 55.101562 -4.710938 58.984375 -7.328125 62.328125 -10.671875 C 65.671875 -14.015625 68.285156 -17.890625 70.171875 -22.296875 C 72.054688 -26.710938 73 -31.445312 73 -36.5 C 73 -41.550781 72.054688 -46.28125 70.171875 -50.6875 C 68.285156 -55.101562 65.671875 -58.984375 62.328125 -62.328125 C 58.984375 -65.671875 55.101562 -68.285156 50.6875 -70.171875 C 46.28125 -72.054688 41.550781 -73 36.5 -73 Z M 24.765625 -68.9375 C 28.171875 -70.144531 31.648438 -70.445312 35.203125 -69.84375 C 38.765625 -69.238281 42.21875 -67.851562 45.5625 -65.6875 C 48.90625 -63.519531 51.929688 -60.707031 54.640625 -57.25 C 57.347656 -53.800781 59.519531 -49.835938 61.15625 -45.359375 C 62.789062 -40.867188 63.675781 -36.4375 63.8125 -32.0625 C 63.957031 -27.6875 63.425781 -23.597656 62.21875 -19.796875 C 61.007812 -15.992188 59.226562 -12.703125 56.875 -9.921875 C 54.53125 -7.148438 51.648438 -5.160156 48.234375 -3.953125 C 44.816406 -2.742188 41.3125 -2.441406 37.71875 -3.046875 C 34.125 -3.648438 30.671875 -5.035156 27.359375 -7.203125 C 24.054688 -9.367188 21.050781 -12.175781 18.34375 -15.625 C 15.644531 -19.082031 13.476562 -23.050781 11.84375 -27.53125 C 10.207031 -32.007812 9.316406 -36.453125 9.171875 -40.859375 C 9.035156 -45.273438 9.550781 -49.367188 10.71875 -53.140625 C 11.894531 -56.910156 13.675781 -60.179688 16.0625 -62.953125 C 18.445312 -65.734375 21.347656 -67.726562 24.765625 -68.9375 Z M 24.765625 -68.9375 "/></g></g></g><g fill="#ffffff" fill-opacity="1"><g transform="translate(257.528414, 416.099531)"><g><path d="M 0.953125 -29.453125 C 2.304688 -23.972656 4.492188 -19.148438 7.515625 -14.984375 C 10.546875 -10.828125 14.160156 -7.609375 18.359375 -5.328125 C 22.554688 -3.054688 27.003906 -1.921875 31.703125 -1.921875 C 33.765625 -1.921875 35.96875 -2.171875 38.3125 -2.671875 C 40.65625 -3.171875 42.859375 -3.953125 44.921875 -5.015625 C 46.992188 -6.078125 48.722656 -7.515625 50.109375 -9.328125 C 51.492188 -11.148438 52.222656 -13.410156 52.296875 -16.109375 C 52.429688 -19.316406 51.539062 -22.179688 49.625 -24.703125 C 47.707031 -27.234375 45.394531 -29.101562 42.6875 -30.3125 C 39.695312 -31.726562 36.492188 -32.789062 33.078125 -33.5 C 29.660156 -34.21875 26.207031 -34.945312 22.71875 -35.6875 C 19.238281 -36.4375 15.898438 -37.488281 12.703125 -38.84375 C 10.773438 -39.695312 8.832031 -40.765625 6.875 -42.046875 C 4.925781 -43.328125 3.289062 -44.910156 1.96875 -46.796875 C 0.65625 -48.679688 0 -50.867188 0 -53.359375 C 0 -55.847656 0.601562 -58.101562 1.8125 -60.125 C 3.019531 -62.15625 4.546875 -63.9375 6.390625 -65.46875 C 8.242188 -67 10.097656 -68.226562 11.953125 -69.15625 C 14.585938 -70.4375 17.378906 -71.394531 20.328125 -72.03125 C 23.285156 -72.675781 26.289062 -73 29.34375 -73 C 34.820312 -73 40.15625 -72.144531 45.34375 -70.4375 C 50.539062 -68.726562 55.0625 -66.304688 58.90625 -63.171875 L 54.953125 -52.828125 C 51.398438 -58.015625 47.914062 -62.101562 44.5 -65.09375 C 41.082031 -68.082031 37.0625 -69.929688 32.4375 -70.640625 C 28.882812 -71.210938 25.273438 -71.085938 21.609375 -70.265625 C 17.941406 -69.453125 14.757812 -67.691406 12.0625 -64.984375 C 9.425781 -62.210938 8.410156 -59.347656 9.015625 -56.390625 C 9.617188 -53.441406 11.769531 -50.972656 15.46875 -48.984375 C 18.382812 -47.492188 21.585938 -46.335938 25.078125 -45.515625 C 28.566406 -44.691406 32.125 -43.90625 35.75 -43.15625 C 39.375 -42.414062 42.785156 -41.421875 45.984375 -40.171875 C 49.191406 -38.929688 51.9375 -37.101562 54.21875 -34.6875 C 56.207031 -32.550781 57.554688 -29.96875 58.265625 -26.9375 C 58.972656 -23.914062 59.078125 -20.835938 58.578125 -17.703125 C 58.085938 -14.578125 56.988281 -11.84375 55.28125 -9.5 C 53.570312 -7.144531 51.382812 -5.273438 48.71875 -3.890625 C 46.050781 -2.503906 43.203125 -1.507812 40.171875 -0.90625 C 37.148438 -0.300781 34.144531 0 31.15625 0 C 25.320312 0 19.738281 -0.921875 14.40625 -2.765625 C 9.070312 -4.617188 4.269531 -7.429688 0 -11.203125 L 0 -29.453125 Z M 0.953125 -29.453125 "/></g></g></g><g fill="#ffffff" fill-opacity="1"><g transform="translate(326.144736, 416.099531)"><g><path d="M 35.859375 -15.046875 C 35.859375 -9.421875 36.425781 -5.648438 37.5625 -3.734375 C 38.695312 -1.816406 40.40625 -0.890625 42.6875 -0.953125 L 42.6875 0 L 18.890625 0 L 18.890625 -0.953125 C 21.160156 -0.890625 22.863281 -1.816406 24 -3.734375 C 25.144531 -5.648438 25.71875 -9.421875 25.71875 -15.046875 L 25.71875 -71.078125 L 22.9375 -71.078125 C 20.09375 -71.078125 17.175781 -70.472656 14.1875 -69.265625 C 11.207031 -68.054688 8.523438 -66.382812 6.140625 -64.25 C 3.753906 -62.113281 2.023438 -59.65625 0.953125 -56.875 L 0 -56.875 L 4.375 -73 L 57.09375 -73 L 61.578125 -56.875 L 60.609375 -56.875 C 59.546875 -59.65625 57.804688 -62.113281 55.390625 -64.25 C 52.972656 -66.382812 50.285156 -68.054688 47.328125 -69.265625 C 44.378906 -70.472656 41.445312 -71.078125 38.53125 -71.078125 L 35.859375 -71.078125 Z M 35.859375 -15.046875 "/></g></g></g><g fill="#ffffff" fill-opacity="1"><g transform="translate(397.215413, 416.099531)"><g><path d="M 0 0 L 0 -0.953125 C 2.28125 -0.890625 3.988281 -1.816406 5.125 -3.734375 C 6.257812 -5.648438 6.828125 -9.421875 6.828125 -15.046875 L 6.828125 -57.84375 C 6.828125 -63.53125 6.257812 -67.351562 5.125 -69.3125 C 3.988281 -71.269531 2.28125 -72.175781 0 -72.03125 L 0 -73 L 54.953125 -73 L 59.4375 -56.875 L 58.484375 -56.875 C 57.410156 -59.65625 55.664062 -62.113281 53.25 -64.25 C 50.832031 -66.382812 48.144531 -68.054688 45.1875 -69.265625 C 42.238281 -70.472656 39.304688 -71.078125 36.390625 -71.078125 L 16.96875 -71.078125 L 16.96875 -34.046875 C 18.820312 -38.097656 21.273438 -40.601562 24.328125 -41.5625 C 27.390625 -42.519531 31.054688 -42.289062 35.328125 -40.875 C 37.097656 -40.300781 38.890625 -39.710938 40.703125 -39.109375 C 42.523438 -38.503906 44.269531 -38.363281 45.9375 -38.6875 C 47.613281 -39.007812 49.128906 -40.203125 50.484375 -42.265625 L 51.328125 -41.828125 C 49.546875 -36.566406 47.035156 -33.242188 43.796875 -31.859375 C 40.566406 -30.472656 36.601562 -30.5625 31.90625 -32.125 C 30.195312 -32.6875 28.4375 -33.253906 26.625 -33.828125 C 24.8125 -34.398438 23.085938 -34.5625 21.453125 -34.3125 C 19.816406 -34.0625 18.320312 -32.976562 16.96875 -31.0625 L 16.96875 -1.921875 L 35.75 -1.921875 C 39.238281 -1.921875 42.722656 -2.6875 46.203125 -4.21875 C 49.691406 -5.75 52.84375 -7.8125 55.65625 -10.40625 C 58.46875 -13 60.515625 -15.929688 61.796875 -19.203125 L 62.640625 -19.203125 L 56.5625 0 Z M 0 0 "/></g></g></g><g fill="#ffffff" fill-opacity="1"><g transform="translate(469.246496, 416.099531)"><g><path d="M 16.96875 -15.046875 C 16.96875 -9.421875 17.535156 -5.648438 18.671875 -3.734375 C 19.816406 -1.816406 21.523438 -0.890625 23.796875 -0.953125 L 23.796875 0 L 0 0 L 0 -0.953125 C 2.28125 -0.890625 3.988281 -1.816406 5.125 -3.734375 C 6.257812 -5.648438 6.828125 -9.421875 6.828125 -15.046875 L 6.828125 -57.84375 C 6.828125 -63.53125 6.257812 -67.351562 5.125 -69.3125 C 3.988281 -71.269531 2.28125 -72.175781 0 -72.03125 L 0 -73 L 39.8125 -73 C 42.726562 -73 45.644531 -72.585938 48.5625 -71.765625 C 51.476562 -70.953125 53.929688 -69.546875 55.921875 -67.546875 C 57.910156 -65.554688 58.90625 -62.816406 58.90625 -59.328125 C 58.90625 -55.847656 57.890625 -53.003906 55.859375 -50.796875 C 53.835938 -48.585938 51.242188 -46.769531 48.078125 -45.34375 C 44.910156 -43.925781 41.65625 -42.613281 38.3125 -41.40625 C 41.375 -41.125 43.789062 -40.234375 45.5625 -38.734375 C 47.34375 -37.242188 48.625 -35.320312 49.40625 -32.96875 C 49.90625 -31.476562 50.546875 -29.46875 51.328125 -26.9375 C 52.109375 -24.414062 52.960938 -21.765625 53.890625 -18.984375 C 54.816406 -16.210938 55.773438 -13.671875 56.765625 -11.359375 C 57.765625 -9.046875 58.726562 -7.359375 59.65625 -6.296875 C 60.4375 -5.441406 61.378906 -4.78125 62.484375 -4.3125 C 63.585938 -3.851562 64.671875 -4.085938 65.734375 -5.015625 L 66.484375 -4.375 C 65.773438 -2.8125 64.707031 -1.691406 63.28125 -1.015625 C 61.863281 -0.335938 60.367188 0 58.796875 0 C 56.171875 0 54.035156 -0.617188 52.390625 -1.859375 C 50.753906 -3.109375 49.441406 -4.691406 48.453125 -6.609375 C 47.171875 -8.960938 46.046875 -11.597656 45.078125 -14.515625 C 44.117188 -17.429688 43.25 -20.347656 42.46875 -23.265625 C 41.6875 -26.179688 40.832031 -28.847656 39.90625 -31.265625 C 38.769531 -34.472656 37.273438 -36.679688 35.421875 -37.890625 C 33.578125 -39.097656 31.019531 -38.921875 27.75 -37.359375 C 25.757812 -36.429688 23.75 -35.148438 21.71875 -33.515625 C 19.6875 -31.878906 18.101562 -30.421875 16.96875 -29.140625 Z M 16.96875 -71.078125 L 16.96875 -31.90625 C 18.394531 -33.332031 19.941406 -34.648438 21.609375 -35.859375 C 23.285156 -37.066406 25.046875 -38.238281 26.890625 -39.375 C 28.597656 -40.519531 30.675781 -41.785156 33.125 -43.171875 C 35.582031 -44.554688 38.003906 -46.066406 40.390625 -47.703125 C 42.773438 -49.335938 44.75 -51.148438 46.3125 -53.140625 C 47.875 -55.140625 48.65625 -57.347656 48.65625 -59.765625 C 48.726562 -62.960938 47.875 -65.363281 46.09375 -66.96875 C 44.320312 -68.570312 42.117188 -69.65625 39.484375 -70.21875 C 36.847656 -70.789062 34.285156 -71.078125 31.796875 -71.078125 Z M 16.96875 -71.078125 "/></g></g></g><g fill="#ffffff" fill-opacity="1"><g transform="translate(545.332619, 416.099531)"><g><path d="M 23.796875 -73 L 23.796875 -72.03125 C 21.523438 -72.175781 19.816406 -71.269531 18.671875 -69.3125 C 17.535156 -67.351562 16.96875 -63.53125 16.96875 -57.84375 L 16.96875 -15.046875 C 16.96875 -9.421875 17.535156 -5.648438 18.671875 -3.734375 C 19.816406 -1.816406 21.523438 -0.890625 23.796875 -0.953125 L 23.796875 0 L 0 0 L 0 -0.953125 C 2.28125 -0.890625 3.988281 -1.816406 5.125 -3.734375 C 6.257812 -5.648438 6.828125 -9.421875 6.828125 -15.046875 L 6.828125 -57.84375 C 6.828125 -63.53125 6.257812 -67.351562 5.125 -69.3125 C 3.988281 -71.269531 2.28125 -72.175781 0 -72.03125 L 0 -73 Z M 23.796875 -73 "/></g></g></g><g fill="#ffffff" fill-opacity="1"><g transform="translate(578.627411, 416.099531)"><g><path d="M 40.984375 -73 L 64.453125 -5.96875 C 65.023438 -4.332031 65.804688 -3.050781 66.796875 -2.125 C 67.796875 -1.207031 69.257812 -0.785156 71.1875 -0.859375 L 71.1875 0 L 49.625 0 L 49.625 -0.859375 C 51.476562 -0.785156 52.773438 -1.175781 53.515625 -2.03125 C 54.265625 -2.882812 54.351562 -4.195312 53.78125 -5.96875 L 46.53125 -26.578125 C 44.675781 -22.660156 42.21875 -20.222656 39.15625 -19.265625 C 36.101562 -18.304688 32.441406 -18.5 28.171875 -19.84375 C 27.109375 -20.207031 25.847656 -20.632812 24.390625 -21.125 C 22.929688 -21.625 21.4375 -21.960938 19.90625 -22.140625 C 18.375 -22.316406 16.984375 -22.140625 15.734375 -21.609375 C 14.492188 -21.078125 13.585938 -19.957031 13.015625 -18.25 L 10.78125 -12.265625 C 10.5 -11.347656 10.359375 -10.476562 10.359375 -9.65625 C 10.359375 -8.84375 10.5 -7.972656 10.78125 -7.046875 C 10.914062 -6.691406 11.054688 -6.300781 11.203125 -5.875 C 11.347656 -5.445312 11.457031 -5.054688 11.53125 -4.703125 C 12.09375 -3.128906 12.890625 -2.078125 13.921875 -1.546875 C 14.953125 -1.015625 16.320312 -0.785156 18.03125 -0.859375 L 18.03125 0 C 15.40625 0 12.363281 0 8.90625 0 C 5.457031 0 2.488281 0 0 0 L 0 -0.859375 C 1.707031 -0.785156 3.09375 -1.175781 4.15625 -2.03125 C 5.226562 -2.882812 6.015625 -4.054688 6.515625 -5.546875 L 30.203125 -73 Z M 45.890625 -28.703125 L 31.265625 -70.21875 L 15.46875 -25.5 C 17.320312 -27.925781 19.597656 -29.367188 22.296875 -29.828125 C 25.003906 -30.285156 28.101562 -29.910156 31.59375 -28.703125 C 33.226562 -28.203125 34.898438 -27.664062 36.609375 -27.09375 C 38.316406 -26.53125 39.96875 -26.300781 41.5625 -26.40625 C 43.164062 -26.519531 44.609375 -27.285156 45.890625 -28.703125 Z M 45.890625 -28.703125 "/></g></g></g><g fill="#ffffff" fill-opacity="1"><g transform="translate(168.865209, 466.227495)"><g/></g></g><g fill="#ffffff" fill-opacity="1"><g transform="translate(189.364819, 466.227495)"><g><path d="M 0 0 L 0 -0.4375 C 1.039062 -0.40625 1.816406 -0.828125 2.328125 -1.703125 C 2.847656 -2.578125 3.109375 -4.296875 3.109375 -6.859375 L 3.109375 -26.390625 C 3.109375 -28.984375 2.847656 -30.726562 2.328125 -31.625 C 1.816406 -32.519531 1.039062 -32.929688 0 -32.859375 L 0 -33.296875 L 12.65625 -33.296875 C 14.601562 -33.296875 16.523438 -33.101562 18.421875 -32.71875 C 20.328125 -32.332031 22.050781 -31.578125 23.59375 -30.453125 C 25.132812 -29.335938 26.359375 -27.679688 27.265625 -25.484375 C 28.171875 -23.296875 28.625 -20.414062 28.625 -16.84375 C 28.625 -13.269531 28.171875 -10.378906 27.265625 -8.171875 C 26.359375 -5.972656 25.140625 -4.28125 23.609375 -3.09375 C 22.085938 -1.90625 20.375 -1.09375 18.46875 -0.65625 C 16.570312 -0.21875 14.632812 0 12.65625 0 Z M 7.734375 -32.421875 L 7.734375 -0.875 L 14.015625 -0.875 C 16.253906 -0.875 18.113281 -1.5625 19.59375 -2.9375 C 21.070312 -4.320312 22.175781 -6.222656 22.90625 -8.640625 C 23.632812 -11.054688 24 -13.789062 24 -16.84375 C 24 -19.925781 23.625 -22.632812 22.875 -24.96875 C 22.132812 -27.3125 21.023438 -29.140625 19.546875 -30.453125 C 18.066406 -31.765625 16.222656 -32.421875 14.015625 -32.421875 Z M 7.734375 -32.421875 "/></g></g></g><g fill="#ffffff" fill-opacity="1"><g transform="translate(225.73266, 466.227495)"><g><path d="M 18.703125 -33.296875 L 29.40625 -2.71875 C 29.664062 -1.976562 30.019531 -1.394531 30.46875 -0.96875 C 30.925781 -0.550781 31.59375 -0.359375 32.46875 -0.390625 L 32.46875 0 L 22.640625 0 L 22.640625 -0.390625 C 23.484375 -0.359375 24.070312 -0.535156 24.40625 -0.921875 C 24.75 -1.316406 24.789062 -1.914062 24.53125 -2.71875 L 21.234375 -12.125 C 20.390625 -10.34375 19.269531 -9.226562 17.875 -8.78125 C 16.476562 -8.34375 14.804688 -8.4375 12.859375 -9.0625 C 12.367188 -9.21875 11.789062 -9.410156 11.125 -9.640625 C 10.457031 -9.867188 9.773438 -10.019531 9.078125 -10.09375 C 8.378906 -10.175781 7.742188 -10.097656 7.171875 -9.859375 C 6.609375 -9.617188 6.195312 -9.109375 5.9375 -8.328125 L 4.921875 -5.59375 C 4.785156 -5.175781 4.71875 -4.78125 4.71875 -4.40625 C 4.71875 -4.03125 4.785156 -3.632812 4.921875 -3.21875 C 4.984375 -3.050781 5.046875 -2.867188 5.109375 -2.671875 C 5.171875 -2.484375 5.222656 -2.304688 5.265625 -2.140625 C 5.515625 -1.429688 5.875 -0.953125 6.34375 -0.703125 C 6.820312 -0.460938 7.453125 -0.359375 8.234375 -0.390625 L 8.234375 0 C 7.023438 0 5.632812 0 4.0625 0 C 2.488281 0 1.132812 0 0 0 L 0 -0.390625 C 0.78125 -0.359375 1.410156 -0.535156 1.890625 -0.921875 C 2.378906 -1.316406 2.738281 -1.851562 2.96875 -2.53125 L 13.78125 -33.296875 Z M 20.9375 -13.09375 L 14.265625 -32.03125 L 7.0625 -11.640625 C 7.90625 -12.742188 8.941406 -13.398438 10.171875 -13.609375 C 11.410156 -13.816406 12.820312 -13.644531 14.40625 -13.09375 C 15.15625 -12.863281 15.921875 -12.617188 16.703125 -12.359375 C 17.484375 -12.109375 18.238281 -12.003906 18.96875 -12.046875 C 19.695312 -12.097656 20.351562 -12.445312 20.9375 -13.09375 Z M 20.9375 -13.09375 "/></g></g></g><g fill="#ffffff" fill-opacity="1"><g transform="translate(265.897905, 466.227495)"><g/></g></g><g fill="#ffffff" fill-opacity="1"><g transform="translate(286.394549, 466.227495)"><g><path d="M 0 -2.140625 L 1.703125 -6.578125 C 2.128906 -5.859375 2.671875 -5.082031 3.328125 -4.25 C 3.992188 -3.425781 4.707031 -2.722656 5.46875 -2.140625 C 6.238281 -1.554688 6.976562 -1.234375 7.6875 -1.171875 C 8.894531 -1.035156 9.71875 -1.445312 10.15625 -2.40625 C 10.59375 -3.363281 10.8125 -4.492188 10.8125 -5.796875 L 10.8125 -26.390625 C 10.8125 -28.984375 10.550781 -30.726562 10.03125 -31.625 C 9.507812 -32.519531 8.726562 -32.929688 7.6875 -32.859375 L 7.6875 -33.296875 L 18.546875 -33.296875 L 18.546875 -32.859375 C 17.503906 -32.929688 16.722656 -32.519531 16.203125 -31.625 C 15.691406 -30.726562 15.4375 -28.984375 15.4375 -26.390625 L 15.4375 -8.625 C 15.4375 -6.832031 15.019531 -5.296875 14.1875 -4.015625 C 13.363281 -2.734375 12.226562 -1.742188 10.78125 -1.046875 C 9.34375 -0.347656 7.710938 0 5.890625 0 C 4.722656 0 3.675781 -0.175781 2.75 -0.53125 C 1.820312 -0.894531 0.90625 -1.429688 0 -2.140625 Z M 0 -2.140625 "/></g></g></g><g fill="#ffffff" fill-opacity="1"><g transform="translate(312.635991, 466.227495)"><g><path d="M 18.703125 -33.296875 L 29.40625 -2.71875 C 29.664062 -1.976562 30.019531 -1.394531 30.46875 -0.96875 C 30.925781 -0.550781 31.59375 -0.359375 32.46875 -0.390625 L 32.46875 0 L 22.640625 0 L 22.640625 -0.390625 C 23.484375 -0.359375 24.070312 -0.535156 24.40625 -0.921875 C 24.75 -1.316406 24.789062 -1.914062 24.53125 -2.71875 L 21.234375 -12.125 C 20.390625 -10.34375 19.269531 -9.226562 17.875 -8.78125 C 16.476562 -8.34375 14.804688 -8.4375 12.859375 -9.0625 C 12.367188 -9.21875 11.789062 -9.410156 11.125 -9.640625 C 10.457031 -9.867188 9.773438 -10.019531 9.078125 -10.09375 C 8.378906 -10.175781 7.742188 -10.097656 7.171875 -9.859375 C 6.609375 -9.617188 6.195312 -9.109375 5.9375 -8.328125 L 4.921875 -5.59375 C 4.785156 -5.175781 4.71875 -4.78125 4.71875 -4.40625 C 4.71875 -4.03125 4.785156 -3.632812 4.921875 -3.21875 C 4.984375 -3.050781 5.046875 -2.867188 5.109375 -2.671875 C 5.171875 -2.484375 5.222656 -2.304688 5.265625 -2.140625 C 5.515625 -1.429688 5.875 -0.953125 6.34375 -0.703125 C 6.820312 -0.460938 7.453125 -0.359375 8.234375 -0.390625 L 8.234375 0 C 7.023438 0 5.632812 0 4.0625 0 C 2.488281 0 1.132812 0 0 0 L 0 -0.390625 C 0.78125 -0.359375 1.410156 -0.535156 1.890625 -0.921875 C 2.378906 -1.316406 2.738281 -1.851562 2.96875 -2.53125 L 13.78125 -33.296875 Z M 20.9375 -13.09375 L 14.265625 -32.03125 L 7.0625 -11.640625 C 7.90625 -12.742188 8.941406 -13.398438 10.171875 -13.609375 C 11.410156 -13.816406 12.820312 -13.644531 14.40625 -13.09375 C 15.15625 -12.863281 15.921875 -12.617188 16.703125 -12.359375 C 17.484375 -12.109375 18.238281 -12.003906 18.96875 -12.046875 C 19.695312 -12.097656 20.351562 -12.445312 20.9375 -13.09375 Z M 20.9375 -13.09375 "/></g></g></g><g fill="#ffffff" fill-opacity="1"><g transform="translate(352.801229, 466.227495)"><g><path d="M 29.65625 -6.859375 L 29.65625 -30.671875 L 18.890625 0 L 13.921875 0 L 4 -28.53125 L 4 -6.859375 C 4 -4.296875 4.253906 -2.578125 4.765625 -1.703125 C 5.285156 -0.828125 6.066406 -0.40625 7.109375 -0.4375 L 7.109375 0 L 0 0 L 0 -0.4375 C 1.039062 -0.40625 1.816406 -0.828125 2.328125 -1.703125 C 2.847656 -2.578125 3.109375 -4.296875 3.109375 -6.859375 L 3.109375 -26.390625 C 3.109375 -28.984375 2.847656 -30.726562 2.328125 -31.625 C 1.816406 -32.519531 1.039062 -32.929688 0 -32.859375 L 0 -33.296875 L 7.25 -33.296875 L 18.40625 -1.21875 L 29.65625 -33.296875 L 37.390625 -33.296875 L 37.390625 -32.859375 C 36.347656 -32.929688 35.566406 -32.519531 35.046875 -31.625 C 34.535156 -30.726562 34.28125 -28.984375 34.28125 -26.390625 L 34.28125 -6.859375 C 34.28125 -4.296875 34.535156 -2.578125 35.046875 -1.703125 C 35.566406 -0.828125 36.347656 -0.40625 37.390625 -0.4375 L 37.390625 0 L 26.53125 0 L 26.53125 -0.4375 C 27.570312 -0.40625 28.351562 -0.828125 28.875 -1.703125 C 29.394531 -2.578125 29.65625 -4.296875 29.65625 -6.859375 Z M 29.65625 -6.859375 "/></g></g></g><g fill="#ffffff" fill-opacity="1"><g transform="translate(397.834936, 466.227495)"><g><path d="M 0 0 L 0 -0.4375 C 1.039062 -0.40625 1.816406 -0.828125 2.328125 -1.703125 C 2.847656 -2.578125 3.109375 -4.296875 3.109375 -6.859375 L 3.109375 -26.390625 C 3.109375 -28.984375 2.847656 -30.726562 2.328125 -31.625 C 1.816406 -32.519531 1.039062 -32.929688 0 -32.859375 L 0 -33.296875 L 25.078125 -33.296875 L 27.125 -25.953125 L 26.6875 -25.953125 C 26.195312 -27.210938 25.398438 -28.328125 24.296875 -29.296875 C 23.191406 -30.273438 21.960938 -31.039062 20.609375 -31.59375 C 19.265625 -32.144531 17.929688 -32.421875 16.609375 -32.421875 L 7.734375 -32.421875 L 7.734375 -15.53125 C 8.578125 -17.382812 9.695312 -18.53125 11.09375 -18.96875 C 12.488281 -19.40625 14.160156 -19.296875 16.109375 -18.640625 C 16.921875 -18.378906 17.738281 -18.113281 18.5625 -17.84375 C 19.394531 -17.570312 20.191406 -17.507812 20.953125 -17.65625 C 21.722656 -17.800781 22.414062 -18.34375 23.03125 -19.28125 L 23.421875 -19.078125 C 22.609375 -16.679688 21.460938 -15.164062 19.984375 -14.53125 C 18.503906 -13.894531 16.695312 -13.9375 14.5625 -14.65625 C 13.78125 -14.914062 12.972656 -15.175781 12.140625 -15.4375 C 11.316406 -15.695312 10.53125 -15.769531 9.78125 -15.65625 C 9.039062 -15.539062 8.359375 -15.046875 7.734375 -14.171875 L 7.734375 -0.875 L 16.3125 -0.875 C 17.90625 -0.875 19.492188 -1.222656 21.078125 -1.921875 C 22.671875 -2.617188 24.109375 -3.5625 25.390625 -4.75 C 26.671875 -5.9375 27.601562 -7.273438 28.1875 -8.765625 L 28.578125 -8.765625 L 25.796875 0 Z M 0 0 "/></g></g></g><g fill="#ffffff" fill-opacity="1"><g transform="translate(434.008031, 466.227495)"><g><path d="M 0.4375 -13.4375 C 1.050781 -10.9375 2.046875 -8.738281 3.421875 -6.84375 C 4.804688 -4.945312 6.457031 -3.476562 8.375 -2.4375 C 10.289062 -1.394531 12.316406 -0.875 14.453125 -0.875 C 15.398438 -0.875 16.40625 -0.988281 17.46875 -1.21875 C 18.539062 -1.445312 19.546875 -1.800781 20.484375 -2.28125 C 21.429688 -2.769531 22.222656 -3.425781 22.859375 -4.25 C 23.492188 -5.082031 23.828125 -6.117188 23.859375 -7.359375 C 23.921875 -8.816406 23.515625 -10.117188 22.640625 -11.265625 C 21.765625 -12.421875 20.707031 -13.273438 19.46875 -13.828125 C 18.113281 -14.472656 16.65625 -14.957031 15.09375 -15.28125 C 13.53125 -15.613281 11.953125 -15.945312 10.359375 -16.28125 C 8.773438 -16.625 7.253906 -17.101562 5.796875 -17.71875 C 4.921875 -18.113281 4.035156 -18.601562 3.140625 -19.1875 C 2.242188 -19.769531 1.492188 -20.488281 0.890625 -21.34375 C 0.296875 -22.207031 0 -23.207031 0 -24.34375 C 0 -25.476562 0.273438 -26.507812 0.828125 -27.4375 C 1.378906 -28.363281 2.078125 -29.175781 2.921875 -29.875 C 3.765625 -30.570312 4.609375 -31.128906 5.453125 -31.546875 C 6.648438 -32.128906 7.921875 -32.566406 9.265625 -32.859375 C 10.617188 -33.148438 11.992188 -33.296875 13.390625 -33.296875 C 15.890625 -33.296875 18.320312 -32.90625 20.6875 -32.125 C 23.0625 -31.351562 25.125 -30.253906 26.875 -28.828125 L 25.078125 -24.09375 C 23.453125 -26.46875 21.859375 -28.335938 20.296875 -29.703125 C 18.742188 -31.066406 16.910156 -31.910156 14.796875 -32.234375 C 13.171875 -32.492188 11.523438 -32.4375 9.859375 -32.0625 C 8.191406 -31.6875 6.738281 -30.882812 5.5 -29.65625 C 4.300781 -28.382812 3.835938 -27.070312 4.109375 -25.71875 C 4.390625 -24.375 5.375 -23.25 7.0625 -22.34375 C 8.394531 -21.664062 9.851562 -21.140625 11.4375 -20.765625 C 13.03125 -20.390625 14.65625 -20.03125 16.3125 -19.6875 C 17.96875 -19.351562 19.523438 -18.898438 20.984375 -18.328125 C 22.441406 -17.765625 23.691406 -16.929688 24.734375 -15.828125 C 25.640625 -14.847656 26.253906 -13.664062 26.578125 -12.28125 C 26.898438 -10.90625 26.945312 -9.503906 26.71875 -8.078125 C 26.5 -6.648438 26 -5.398438 25.21875 -4.328125 C 24.4375 -3.253906 23.4375 -2.398438 22.21875 -1.765625 C 21.007812 -1.140625 19.710938 -0.6875 18.328125 -0.40625 C 16.953125 -0.132812 15.582031 0 14.21875 0 C 11.550781 0 9 -0.421875 6.5625 -1.265625 C 4.132812 -2.109375 1.945312 -3.390625 0 -5.109375 L 0 -13.4375 Z M 0.4375 -13.4375 "/></g></g></g><g fill="#ffffff" fill-opacity="1"><g transform="translate(468.623226, 466.227495)"><g/></g></g><g fill="#ffffff" fill-opacity="1"><g transform="translate(489.119879, 466.227495)"><g><path d="M 0 -2.140625 L 1.703125 -6.578125 C 2.128906 -5.859375 2.671875 -5.082031 3.328125 -4.25 C 3.992188 -3.425781 4.707031 -2.722656 5.46875 -2.140625 C 6.238281 -1.554688 6.976562 -1.234375 7.6875 -1.171875 C 8.894531 -1.035156 9.71875 -1.445312 10.15625 -2.40625 C 10.59375 -3.363281 10.8125 -4.492188 10.8125 -5.796875 L 10.8125 -26.390625 C 10.8125 -28.984375 10.550781 -30.726562 10.03125 -31.625 C 9.507812 -32.519531 8.726562 -32.929688 7.6875 -32.859375 L 7.6875 -33.296875 L 18.546875 -33.296875 L 18.546875 -32.859375 C 17.503906 -32.929688 16.722656 -32.519531 16.203125 -31.625 C 15.691406 -30.726562 15.4375 -28.984375 15.4375 -26.390625 L 15.4375 -8.625 C 15.4375 -6.832031 15.019531 -5.296875 14.1875 -4.015625 C 13.363281 -2.734375 12.226562 -1.742188 10.78125 -1.046875 C 9.34375 -0.347656 7.710938 0 5.890625 0 C 4.722656 0 3.675781 -0.175781 2.75 -0.53125 C 1.820312 -0.894531 0.90625 -1.429688 0 -2.140625 Z M 0 -2.140625 "/></g></g></g><g fill="#ffffff" fill-opacity="1"><g transform="translate(515.361312, 466.227495)"><g><path d="M 16.65625 -33.296875 C 14.34375 -33.296875 12.179688 -32.863281 10.171875 -32 C 8.160156 -31.144531 6.390625 -29.953125 4.859375 -28.421875 C 3.335938 -26.898438 2.144531 -25.132812 1.28125 -23.125 C 0.425781 -21.113281 0 -18.957031 0 -16.65625 C 0 -14.34375 0.425781 -12.179688 1.28125 -10.171875 C 2.144531 -8.160156 3.335938 -6.390625 4.859375 -4.859375 C 6.390625 -3.335938 8.160156 -2.144531 10.171875 -1.28125 C 12.179688 -0.425781 14.34375 0 16.65625 0 C 18.957031 0 21.113281 -0.425781 23.125 -1.28125 C 25.132812 -2.144531 26.898438 -3.335938 28.421875 -4.859375 C 29.953125 -6.390625 31.144531 -8.160156 32 -10.171875 C 32.863281 -12.179688 33.296875 -14.34375 33.296875 -16.65625 C 33.296875 -18.957031 32.863281 -21.113281 32 -23.125 C 31.144531 -25.132812 29.953125 -26.898438 28.421875 -28.421875 C 26.898438 -29.953125 25.132812 -31.144531 23.125 -32 C 21.113281 -32.863281 18.957031 -33.296875 16.65625 -33.296875 Z M 11.296875 -31.453125 C 12.847656 -32.003906 14.4375 -32.140625 16.0625 -31.859375 C 17.6875 -31.585938 19.257812 -30.957031 20.78125 -29.96875 C 22.3125 -28.976562 23.691406 -27.695312 24.921875 -26.125 C 26.160156 -24.550781 27.148438 -22.738281 27.890625 -20.6875 C 28.640625 -18.644531 29.046875 -16.625 29.109375 -14.625 C 29.179688 -12.632812 28.941406 -10.769531 28.390625 -9.03125 C 27.835938 -7.289062 27.023438 -5.785156 25.953125 -4.515625 C 24.878906 -3.253906 23.5625 -2.347656 22 -1.796875 C 20.445312 -1.242188 18.847656 -1.101562 17.203125 -1.375 C 15.566406 -1.65625 13.992188 -2.289062 12.484375 -3.28125 C 10.972656 -4.269531 9.601562 -5.550781 8.375 -7.125 C 7.144531 -8.707031 6.15625 -10.519531 5.40625 -12.5625 C 4.65625 -14.601562 4.25 -16.628906 4.1875 -18.640625 C 4.125 -20.660156 4.359375 -22.53125 4.890625 -24.25 C 5.429688 -25.96875 6.242188 -27.457031 7.328125 -28.71875 C 8.410156 -29.988281 9.734375 -30.898438 11.296875 -31.453125 Z M 11.296875 -31.453125 "/></g></g></g><g fill="#ffffff" fill-opacity="1"><g transform="translate(556.402861, 466.227495)"><g><path d="M 8.5625 -30.484375 L 14.890625 -19.078125 L 21.71875 -29.15625 C 22.070312 -29.675781 22.132812 -30.195312 21.90625 -30.71875 C 21.875 -30.78125 21.847656 -30.851562 21.828125 -30.9375 C 21.816406 -31.019531 21.796875 -31.09375 21.765625 -31.15625 C 21.535156 -31.875 21.1875 -32.34375 20.71875 -32.5625 C 20.25 -32.789062 19.640625 -32.890625 18.890625 -32.859375 L 18.890625 -33.296875 L 27.171875 -33.296875 L 27.171875 -32.859375 C 26.191406 -32.890625 25.410156 -32.566406 24.828125 -31.890625 C 24.242188 -31.210938 23.707031 -30.515625 23.21875 -29.796875 L 15.875 -19.03125 L 15.875 -6.859375 C 15.875 -4.296875 16.132812 -2.578125 16.65625 -1.703125 C 17.175781 -0.828125 17.96875 -0.40625 19.03125 -0.4375 L 19.03125 0 L 8.125 0 L 8.125 -0.4375 C 9.164062 -0.40625 9.945312 -0.828125 10.46875 -1.703125 C 10.988281 -2.578125 11.25 -4.296875 11.25 -6.859375 L 11.25 -16.0625 L 3.703125 -29.75 C 3.273438 -30.5625 2.8125 -31.300781 2.3125 -31.96875 C 1.8125 -32.632812 1.039062 -32.929688 0 -32.859375 L 0 -33.296875 L 9.734375 -33.296875 L 9.734375 -32.859375 C 8.921875 -32.890625 8.425781 -32.671875 8.25 -32.203125 C 8.070312 -31.734375 8.175781 -31.160156 8.5625 -30.484375 Z M 8.5625 -30.484375 "/></g></g></g><g fill="#ffffff" fill-opacity="1"><g transform="translate(591.16412, 466.227495)"><g><path d="M 29.21875 -28.828125 L 27.40625 -24.09375 C 25.71875 -26.625 23.957031 -28.523438 22.125 -29.796875 C 20.289062 -31.066406 18.457031 -31.8125 16.625 -32.03125 C 14.789062 -32.257812 13.015625 -32.066406 11.296875 -31.453125 C 9.441406 -30.765625 7.976562 -29.707031 6.90625 -28.28125 C 5.84375 -26.851562 5.109375 -25.226562 4.703125 -23.40625 C 4.296875 -21.59375 4.164062 -19.738281 4.3125 -17.84375 C 4.457031 -15.945312 4.820312 -14.1875 5.40625 -12.5625 C 6.25 -10.226562 7.5625 -8.238281 9.34375 -6.59375 C 11.132812 -4.957031 13.1875 -3.796875 15.5 -3.109375 C 17.820312 -2.429688 20.203125 -2.382812 22.640625 -2.96875 C 24.066406 -3.320312 25.40625 -3.90625 26.65625 -4.71875 C 27.90625 -5.53125 28.984375 -6.585938 29.890625 -7.890625 L 30.234375 -7.640625 C 28.804688 -5.078125 26.882812 -3.160156 24.46875 -1.890625 C 22.050781 -0.628906 19.492188 0 16.796875 0 C 14.429688 0 12.222656 -0.410156 10.171875 -1.234375 C 8.128906 -2.066406 6.34375 -3.238281 4.8125 -4.75 C 3.289062 -6.257812 2.109375 -8.023438 1.265625 -10.046875 C 0.421875 -12.078125 0 -14.28125 0 -16.65625 C 0 -18.988281 0.4375 -21.160156 1.3125 -23.171875 C 2.1875 -25.179688 3.394531 -26.945312 4.9375 -28.46875 C 6.476562 -30 8.265625 -31.1875 10.296875 -32.03125 C 12.328125 -32.875 14.492188 -33.296875 16.796875 -33.296875 C 19.066406 -33.296875 21.296875 -32.90625 23.484375 -32.125 C 25.679688 -31.351562 27.59375 -30.253906 29.21875 -28.828125 Z M 29.21875 -28.828125 "/></g></g></g><g fill="#ffffff" fill-opacity="1"><g transform="translate(629.04118, 466.227495)"><g><path d="M 0 0 L 0 -0.4375 C 1.039062 -0.40625 1.816406 -0.828125 2.328125 -1.703125 C 2.847656 -2.578125 3.109375 -4.296875 3.109375 -6.859375 L 3.109375 -26.390625 C 3.109375 -28.984375 2.847656 -30.726562 2.328125 -31.625 C 1.816406 -32.519531 1.039062 -32.929688 0 -32.859375 L 0 -33.296875 L 25.078125 -33.296875 L 27.125 -25.953125 L 26.6875 -25.953125 C 26.195312 -27.210938 25.398438 -28.328125 24.296875 -29.296875 C 23.191406 -30.273438 21.960938 -31.039062 20.609375 -31.59375 C 19.265625 -32.144531 17.929688 -32.421875 16.609375 -32.421875 L 7.734375 -32.421875 L 7.734375 -15.53125 C 8.578125 -17.382812 9.695312 -18.53125 11.09375 -18.96875 C 12.488281 -19.40625 14.160156 -19.296875 16.109375 -18.640625 C 16.921875 -18.378906 17.738281 -18.113281 18.5625 -17.84375 C 19.394531 -17.570312 20.191406 -17.507812 20.953125 -17.65625 C 21.722656 -17.800781 22.414062 -18.34375 23.03125 -19.28125 L 23.421875 -19.078125 C 22.609375 -16.679688 21.460938 -15.164062 19.984375 -14.53125 C 18.503906 -13.894531 16.695312 -13.9375 14.5625 -14.65625 C 13.78125 -14.914062 12.972656 -15.175781 12.140625 -15.4375 C 11.316406 -15.695312 10.53125 -15.769531 9.78125 -15.65625 C 9.039062 -15.539062 8.359375 -15.046875 7.734375 -14.171875 L 7.734375 -0.875 L 16.3125 -0.875 C 17.90625 -0.875 19.492188 -1.222656 21.078125 -1.921875 C 22.671875 -2.617188 24.109375 -3.5625 25.390625 -4.75 C 26.671875 -5.9375 27.601562 -7.273438 28.1875 -8.765625 L 28.578125 -8.765625 L 25.796875 0 Z M 0 0 "/></g></g></g><g clip-path="url(#0a91e189e9)"><path fill="#d9d9d9" d="M 648.09375 369.121094 C 648.09375 369.121094 648.042969 369.375 647.945312 369.863281 C 647.917969 369.984375 647.890625 370.125 647.859375 370.273438 C 647.835938 370.429688 647.839844 370.601562 647.824219 370.785156 C 647.800781 371.152344 647.757812 371.582031 647.820312 372.066406 C 647.90625 373.996094 648.945312 376.886719 651.609375 379.460938 C 652.933594 380.738281 654.609375 381.96875 656.648438 382.871094 C 657.664062 383.335938 658.773438 383.683594 659.949219 383.976562 C 661.128906 384.253906 662.371094 384.46875 663.664062 384.632812 C 666.257812 384.945312 669.054688 385.035156 672.046875 385.191406 C 675.03125 385.355469 678.246094 385.574219 681.519531 386.679688 C 683.140625 387.222656 684.75 387.953125 686.277344 388.914062 C 687.800781 389.875 689.257812 391.074219 690.460938 392.585938 C 691.664062 394.085938 692.597656 395.933594 692.9375 397.976562 C 693.003906 398.484375 693.050781 399 693.078125 399.523438 C 693.082031 400.050781 693.054688 400.582031 692.96875 401.105469 C 692.808594 402.160156 692.46875 403.195312 691.980469 404.152344 C 690.988281 406.066406 689.445312 407.675781 687.609375 408.851562 C 685.769531 410.019531 683.625 410.796875 681.34375 410.964844 C 680.207031 411.050781 679.035156 410.980469 677.890625 410.710938 C 677.316406 410.589844 676.742188 410.402344 676.210938 410.171875 L 675.398438 409.835938 L 674.628906 409.410156 C 672.566406 408.269531 670.871094 406.519531 669.609375 404.515625 C 668.328125 402.515625 667.527344 400.210938 667.179688 397.816406 C 666.804688 395.425781 667.039062 392.878906 667.777344 390.511719 C 668.53125 388.152344 669.773438 385.9375 671.363281 384.015625 C 672.957031 382.089844 674.871094 380.425781 677.015625 379.089844 C 679.136719 377.730469 681.523438 376.726562 683.980469 376.046875 C 686.441406 375.386719 688.992188 375.027344 691.550781 374.960938 C 696.679688 374.820312 701.808594 375.710938 706.75 377.15625 C 711.707031 378.601562 716.414062 380.570312 720.871094 382.796875 C 725.324219 385.046875 729.542969 387.535156 733.589844 390.101562 C 737.632812 392.671875 741.515625 395.300781 745.308594 397.863281 C 749.101562 400.425781 752.796875 402.886719 756.597656 404.875 C 760.382812 406.863281 764.296875 408.386719 768.230469 409.039062 C 772.152344 409.675781 776.117188 409.457031 779.667969 408.359375 C 781.441406 407.8125 783.105469 407.03125 784.582031 406.042969 C 786.054688 405.058594 787.34375 403.828125 788.371094 402.5 C 790.378906 399.777344 791.175781 396.371094 791.007812 393.238281 C 790.914062 391.664062 790.566406 390.144531 789.996094 388.769531 C 789.441406 387.386719 788.652344 386.144531 787.664062 385.132812 C 786.675781 384.132812 785.492188 383.351562 784.242188 382.90625 C 782.984375 382.453125 781.65625 382.300781 780.390625 382.382812 C 777.851562 382.546875 775.535156 383.65625 774.117188 385.339844 C 773.390625 386.167969 772.960938 387.167969 772.71875 388.136719 C 772.519531 389.121094 772.621094 390.105469 772.902344 390.972656 C 773.472656 392.722656 774.636719 394.003906 775.78125 394.816406 C 776.945312 395.636719 778.148438 395.984375 779.121094 396.011719 C 780.101562 396.054688 780.820312 395.773438 781.265625 395.5625 C 781.492188 395.460938 781.652344 395.355469 781.757812 395.289062 C 781.863281 395.21875 781.917969 395.1875 781.917969 395.1875 C 781.917969 395.1875 781.863281 395.21875 781.757812 395.289062 C 781.652344 395.355469 781.496094 395.460938 781.265625 395.566406 C 780.820312 395.773438 780.101562 396.058594 779.121094 396.023438 C 778.148438 396.007812 776.933594 395.671875 775.75 394.863281 C 774.578125 394.0625 773.378906 392.804688 772.742188 391.027344 C 772.429688 390.144531 772.292969 389.128906 772.464844 388.085938 C 772.6875 387.066406 773.097656 386.011719 773.828125 385.109375 C 775.253906 383.28125 777.632812 382.003906 780.328125 381.695312 C 781.671875 381.542969 783.109375 381.628906 784.523438 382.054688 C 785.941406 382.480469 787.28125 383.257812 788.449219 384.3125 C 789.609375 385.375 790.597656 386.703125 791.269531 388.21875 C 791.960938 389.730469 792.34375 391.40625 792.496094 393.132812 C 792.773438 396.570312 792.027344 400.347656 789.808594 403.535156 C 787.5625 406.65625 784.164062 409.027344 780.296875 410.300781 C 776.429688 411.589844 772.148438 411.914062 767.878906 411.304688 C 763.597656 410.679688 759.433594 409.125 755.449219 407.117188 C 751.457031 405.105469 747.636719 402.636719 743.808594 400.117188 C 739.976562 397.601562 736.085938 395.023438 732.070312 392.519531 C 728.050781 390.019531 723.894531 387.605469 719.554688 385.4375 C 715.207031 383.289062 710.664062 381.40625 705.917969 380.019531 C 701.179688 378.632812 696.351562 377.800781 691.632812 377.910156 C 689.273438 377.960938 686.957031 378.277344 684.734375 378.855469 C 682.523438 379.457031 680.425781 380.320312 678.523438 381.511719 C 674.707031 383.839844 671.6875 387.34375 670.355469 391.34375 C 669.023438 395.296875 669.667969 399.773438 671.75 403.195312 C 672.789062 404.902344 674.175781 406.371094 675.835938 407.328125 L 676.457031 407.6875 L 677.109375 407.96875 C 677.546875 408.167969 677.980469 408.320312 678.433594 408.425781 C 679.328125 408.652344 680.265625 408.730469 681.195312 408.675781 C 684.925781 408.472656 688.503906 406.269531 690.175781 403.203125 C 691.003906 401.664062 691.304688 399.953125 691.054688 398.261719 C 690.8125 396.582031 690.082031 395.011719 689.066406 393.671875 C 688.050781 392.328125 686.765625 391.203125 685.390625 390.285156 C 684.007812 389.363281 682.53125 388.640625 681.027344 388.089844 C 679.527344 387.53125 677.992188 387.214844 676.460938 386.949219 C 674.9375 386.675781 673.429688 386.472656 671.953125 386.308594 C 669 385.984375 666.179688 385.746094 663.566406 385.300781 C 662.257812 385.074219 661.007812 384.792969 659.820312 384.464844 C 658.640625 384.113281 657.511719 383.710938 656.496094 383.199219 C 654.449219 382.199219 652.792969 380.902344 651.492188 379.578125 C 648.875 376.90625 647.878906 374 647.808594 372.066406 C 647.75 371.582031 647.792969 371.152344 647.820312 370.785156 C 647.835938 370.597656 647.832031 370.429688 647.859375 370.273438 C 647.890625 370.121094 647.917969 369.984375 647.941406 369.863281 C 648.042969 369.375 648.09375 369.121094 648.09375 369.121094 Z M 648.09375 369.121094 " fill-opacity="1" fill-rule="nonzero"/></g><g clip-path="url(#fddfcb3bc9)"><path fill="#d9d9d9" d="M 643.167969 381.777344 C 643.167969 381.777344 643.136719 381.898438 643.074219 382.121094 C 643.046875 382.238281 643.003906 382.375 642.980469 382.546875 C 642.960938 382.71875 642.945312 382.914062 642.929688 383.132812 C 642.921875 383.355469 642.945312 383.605469 642.964844 383.871094 C 643.011719 384.136719 643.0625 384.421875 643.152344 384.71875 C 643.25 385.011719 643.355469 385.320312 643.523438 385.628906 C 643.59375 385.785156 643.6875 385.9375 643.777344 386.09375 C 643.863281 386.25 643.898438 386.425781 643.996094 386.585938 C 644.328125 387.242188 644.792969 387.90625 645.355469 388.53125 C 645.921875 389.160156 646.601562 389.746094 647.378906 390.222656 C 648.144531 390.691406 649.058594 391.082031 650.03125 391.332031 C 651.007812 391.589844 652.054688 391.738281 653.148438 391.769531 C 654.242188 391.792969 655.328125 391.710938 656.371094 391.554688 C 657.421875 391.394531 658.417969 391.148438 659.378906 390.859375 C 661.292969 390.277344 663.007812 389.542969 664.453125 388.894531 C 664.632812 388.8125 664.796875 388.710938 664.96875 388.636719 C 665.144531 388.566406 665.332031 388.511719 665.503906 388.453125 C 665.855469 388.339844 666.175781 388.21875 666.476562 388.097656 C 667.070312 387.855469 667.574219 387.625 667.972656 387.417969 C 668.769531 387 669.167969 386.710938 669.167969 386.710938 C 669.167969 386.710938 668.75 386.972656 668.066406 387.554688 C 667.722656 387.84375 667.316406 388.21875 666.847656 388.671875 C 666.613281 388.898438 666.371094 389.144531 666.109375 389.414062 C 665.976562 389.542969 665.851562 389.695312 665.703125 389.816406 C 665.550781 389.941406 665.382812 390.042969 665.222656 390.171875 C 663.929688 391.164062 662.304688 392.285156 660.269531 393.214844 C 658.246094 394.144531 655.753906 394.816406 653.066406 394.75 C 651.722656 394.714844 650.402344 394.480469 649.179688 394.058594 C 647.957031 393.640625 646.851562 393.03125 645.90625 392.265625 C 644.972656 391.503906 644.25 390.625 643.707031 389.734375 C 643.167969 388.84375 642.800781 387.949219 642.59375 387.101562 C 642.542969 386.890625 642.484375 386.683594 642.453125 386.480469 C 642.417969 386.277344 642.429688 386.070312 642.433594 385.871094 C 642.425781 385.480469 642.460938 385.113281 642.480469 384.777344 C 642.511719 384.441406 642.566406 384.136719 642.605469 383.859375 C 642.664062 383.589844 642.71875 383.339844 642.765625 383.113281 C 642.824219 382.898438 642.878906 382.703125 642.925781 382.53125 C 642.972656 382.367188 643.027344 382.230469 643.0625 382.117188 C 643.132812 381.898438 643.167969 381.777344 643.167969 381.777344 Z M 643.167969 381.777344 " fill-opacity="1" fill-rule="nonzero"/></g><g clip-path="url(#93161eb81e)"><path fill="#d9d9d9" d="M 161.898438 369.121094 C 161.898438 369.121094 161.949219 369.375 162.046875 369.863281 C 162.074219 369.984375 162.101562 370.125 162.132812 370.273438 C 162.15625 370.429688 162.152344 370.601562 162.167969 370.785156 C 162.191406 371.152344 162.234375 371.582031 162.171875 372.066406 C 162.085938 373.996094 161.046875 376.886719 158.382812 379.460938 C 157.058594 380.738281 155.382812 381.96875 153.34375 382.871094 C 152.328125 383.335938 151.21875 383.683594 150.042969 383.976562 C 148.863281 384.253906 147.621094 384.46875 146.328125 384.632812 C 143.734375 384.945312 140.9375 385.035156 137.945312 385.191406 C 134.960938 385.355469 131.746094 385.574219 128.472656 386.679688 C 126.851562 387.222656 125.242188 387.953125 123.714844 388.914062 C 122.191406 389.875 120.734375 391.074219 119.53125 392.585938 C 118.328125 394.085938 117.394531 395.933594 117.054688 397.976562 C 116.988281 398.484375 116.941406 399 116.914062 399.523438 C 116.910156 400.050781 116.9375 400.582031 117.023438 401.105469 C 117.183594 402.160156 117.523438 403.195312 118.011719 404.152344 C 119.003906 406.066406 120.546875 407.675781 122.382812 408.851562 C 124.222656 410.019531 126.367188 410.796875 128.648438 410.964844 C 129.785156 411.050781 130.957031 410.980469 132.101562 410.710938 C 132.675781 410.589844 133.25 410.402344 133.78125 410.171875 L 134.59375 409.835938 L 135.363281 409.410156 C 137.425781 408.269531 139.121094 406.519531 140.382812 404.515625 C 141.664062 402.515625 142.464844 400.210938 142.8125 397.816406 C 143.1875 395.425781 142.953125 392.878906 142.214844 390.511719 C 141.460938 388.152344 140.21875 385.9375 138.628906 384.015625 C 137.035156 382.089844 135.121094 380.425781 132.976562 379.089844 C 130.855469 377.730469 128.46875 376.726562 126.011719 376.046875 C 123.550781 375.386719 121 375.027344 118.441406 374.960938 C 113.3125 374.820312 108.183594 375.710938 103.242188 377.15625 C 98.285156 378.601562 93.578125 380.570312 89.121094 382.796875 C 84.667969 385.046875 80.449219 387.535156 76.402344 390.101562 C 72.359375 392.671875 68.476562 395.300781 64.683594 397.863281 C 60.890625 400.425781 57.195312 402.886719 53.394531 404.875 C 49.609375 406.863281 45.691406 408.386719 41.761719 409.039062 C 37.839844 409.675781 33.875 409.457031 30.324219 408.359375 C 28.550781 407.8125 26.886719 407.03125 25.410156 406.042969 C 23.9375 405.058594 22.648438 403.828125 21.621094 402.5 C 19.609375 399.777344 18.816406 396.371094 18.984375 393.238281 C 19.078125 391.664062 19.425781 390.144531 19.996094 388.769531 C 20.550781 387.386719 21.339844 386.144531 22.328125 385.132812 C 23.316406 384.132812 24.5 383.351562 25.75 382.90625 C 27.007812 382.453125 28.335938 382.300781 29.601562 382.382812 C 32.140625 382.546875 34.457031 383.65625 35.875 385.339844 C 36.601562 386.167969 37.03125 387.167969 37.273438 388.136719 C 37.472656 389.121094 37.371094 390.105469 37.089844 390.972656 C 36.519531 392.722656 35.355469 394.003906 34.210938 394.816406 C 33.046875 395.636719 31.84375 395.984375 30.871094 396.011719 C 29.890625 396.054688 29.171875 395.773438 28.726562 395.5625 C 28.5 395.460938 28.339844 395.355469 28.234375 395.289062 C 28.128906 395.21875 28.074219 395.1875 28.074219 395.1875 C 28.074219 395.1875 28.128906 395.21875 28.234375 395.289062 C 28.339844 395.355469 28.496094 395.460938 28.726562 395.566406 C 29.171875 395.773438 29.890625 396.058594 30.871094 396.023438 C 31.84375 396.007812 33.058594 395.671875 34.242188 394.863281 C 35.414062 394.0625 36.613281 392.804688 37.25 391.027344 C 37.5625 390.144531 37.699219 389.128906 37.527344 388.085938 C 37.304688 387.066406 36.894531 386.011719 36.164062 385.109375 C 34.738281 383.28125 32.359375 382.003906 29.664062 381.695312 C 28.320312 381.542969 26.882812 381.628906 25.46875 382.054688 C 24.050781 382.480469 22.710938 383.257812 21.542969 384.3125 C 20.382812 385.375 19.394531 386.703125 18.722656 388.21875 C 18.03125 389.730469 17.648438 391.40625 17.496094 393.132812 C 17.21875 396.570312 17.964844 400.347656 20.183594 403.535156 C 22.429688 406.65625 25.828125 409.027344 29.695312 410.300781 C 33.5625 411.589844 37.84375 411.914062 42.113281 411.304688 C 46.394531 410.679688 50.558594 409.125 54.542969 407.117188 C 58.535156 405.105469 62.355469 402.636719 66.183594 400.117188 C 70.015625 397.601562 73.90625 395.023438 77.921875 392.519531 C 81.941406 390.019531 86.097656 387.605469 90.4375 385.4375 C 94.785156 383.289062 99.328125 381.40625 104.074219 380.019531 C 108.8125 378.632812 113.640625 377.800781 118.359375 377.910156 C 120.71875 377.960938 123.035156 378.277344 125.257812 378.855469 C 127.46875 379.457031 129.566406 380.320312 131.46875 381.511719 C 135.285156 383.839844 138.304688 387.34375 139.636719 391.34375 C 140.96875 395.296875 140.324219 399.773438 138.242188 403.195312 C 137.203125 404.902344 135.816406 406.371094 134.15625 407.328125 L 133.535156 407.6875 L 132.882812 407.96875 C 132.445312 408.167969 132.011719 408.320312 131.558594 408.425781 C 130.664062 408.652344 129.726562 408.730469 128.796875 408.675781 C 125.066406 408.472656 121.488281 406.269531 119.816406 403.203125 C 118.988281 401.664062 118.6875 399.953125 118.9375 398.261719 C 119.179688 396.582031 119.910156 395.011719 120.925781 393.671875 C 121.941406 392.328125 123.226562 391.203125 124.601562 390.285156 C 125.984375 389.363281 127.460938 388.640625 128.964844 388.089844 C 130.464844 387.53125 132 387.214844 133.53125 386.949219 C 135.054688 386.675781 136.5625 386.472656 138.039062 386.308594 C 140.992188 385.984375 143.8125 385.746094 146.425781 385.300781 C 147.734375 385.074219 148.984375 384.792969 150.171875 384.464844 C 151.351562 384.113281 152.480469 383.710938 153.496094 383.199219 C 155.542969 382.199219 157.199219 380.902344 158.5 379.578125 C 161.117188 376.90625 162.113281 374 162.183594 372.066406 C 162.242188 371.582031 162.199219 371.152344 162.171875 370.785156 C 162.15625 370.597656 162.160156 370.429688 162.132812 370.273438 C 162.101562 370.121094 162.074219 369.984375 162.050781 369.863281 C 161.949219 369.375 161.898438 369.121094 161.898438 369.121094 Z M 161.898438 369.121094 " fill-opacity="1" fill-rule="nonzero"/></g><g clip-path="url(#9320d60a18)"><path fill="#d9d9d9" d="M 166.824219 381.777344 C 166.824219 381.777344 166.855469 381.898438 166.917969 382.121094 C 166.945312 382.238281 166.988281 382.375 167.011719 382.546875 C 167.03125 382.71875 167.046875 382.914062 167.0625 383.132812 C 167.070312 383.355469 167.046875 383.605469 167.027344 383.871094 C 166.980469 384.136719 166.929688 384.421875 166.839844 384.71875 C 166.742188 385.011719 166.636719 385.320312 166.46875 385.628906 C 166.398438 385.785156 166.304688 385.9375 166.214844 386.09375 C 166.128906 386.25 166.09375 386.425781 165.996094 386.585938 C 165.664062 387.242188 165.199219 387.90625 164.636719 388.53125 C 164.070312 389.160156 163.390625 389.746094 162.613281 390.222656 C 161.847656 390.691406 160.933594 391.082031 159.960938 391.332031 C 158.984375 391.589844 157.9375 391.738281 156.84375 391.769531 C 155.75 391.792969 154.664062 391.710938 153.621094 391.554688 C 152.570312 391.394531 151.574219 391.148438 150.613281 390.859375 C 148.699219 390.277344 146.984375 389.542969 145.539062 388.894531 C 145.359375 388.8125 145.195312 388.710938 145.023438 388.636719 C 144.847656 388.566406 144.660156 388.511719 144.488281 388.453125 C 144.136719 388.339844 143.816406 388.21875 143.515625 388.097656 C 142.921875 387.855469 142.417969 387.625 142.019531 387.417969 C 141.222656 387 140.824219 386.710938 140.824219 386.710938 C 140.824219 386.710938 141.242188 386.972656 141.925781 387.554688 C 142.269531 387.84375 142.675781 388.21875 143.144531 388.671875 C 143.378906 388.898438 143.621094 389.144531 143.882812 389.414062 C 144.015625 389.542969 144.140625 389.695312 144.289062 389.816406 C 144.441406 389.941406 144.609375 390.042969 144.769531 390.171875 C 146.0625 391.164062 147.6875 392.285156 149.722656 393.214844 C 151.746094 394.144531 154.238281 394.816406 156.925781 394.75 C 158.269531 394.714844 159.589844 394.480469 160.8125 394.058594 C 162.035156 393.640625 163.140625 393.03125 164.085938 392.265625 C 165.019531 391.503906 165.742188 390.625 166.285156 389.734375 C 166.824219 388.84375 167.191406 387.949219 167.398438 387.101562 C 167.449219 386.890625 167.507812 386.683594 167.539062 386.480469 C 167.574219 386.277344 167.5625 386.070312 167.558594 385.871094 C 167.566406 385.480469 167.53125 385.113281 167.511719 384.777344 C 167.480469 384.441406 167.425781 384.136719 167.386719 383.859375 C 167.328125 383.589844 167.273438 383.339844 167.226562 383.113281 C 167.167969 382.898438 167.113281 382.703125 167.066406 382.53125 C 167.019531 382.367188 166.964844 382.230469 166.929688 382.117188 C 166.859375 381.898438 166.824219 381.777344 166.824219 381.777344 Z M 166.824219 381.777344 " fill-opacity="1" fill-rule="nonzero"/></g></svg>