<svg xmlns="http://www.w3.org/2000/svg" xmlns:xlink="http://www.w3.org/1999/xlink" width="500" zoomAndPan="magnify" viewBox="0 0 375 374.999991" height="500" preserveAspectRatio="xMidYMid meet" version="1.0"><path fill="#b00101" d="M 139.246094 240.5 L 143.9375 228.300781 C 145.101562 230.269531 146.601562 232.394531 148.433594 234.671875 C 150.265625 236.949219 152.230469 238.890625 154.328125 240.5 C 156.429688 242.109375 158.464844 243.003906 160.433594 243.183594 C 163.738281 243.539062 165.996094 242.402344 167.203125 239.769531 C 168.410156 237.128906 169.015625 234.019531 169.015625 230.445312 L 169.015625 173.71875 C 169.015625 166.570312 168.300781 161.765625 166.867188 159.308594 C 165.433594 156.847656 163.289062 155.707031 160.433594 155.886719 L 160.433594 154.675781 L 190.339844 154.675781 L 190.339844 155.886719 C 187.480469 155.707031 185.332031 156.847656 183.898438 159.308594 C 182.46875 161.765625 181.753906 166.570312 181.753906 173.71875 L 181.753906 222.667969 C 181.753906 227.582031 180.613281 231.808594 178.332031 235.339844 C 176.054688 238.871094 172.929688 241.597656 168.949219 243.519531 C 164.96875 245.441406 160.476562 246.402344 155.472656 246.402344 C 152.253906 246.402344 149.371094 245.914062 146.820312 244.929688 C 144.277344 243.945312 141.75 242.46875 139.246094 240.5 Z M 139.246094 240.5 " fill-opacity="1" fill-rule="nonzero"/><path fill="#ffffff" d="M 153.976562 218.007812 L 159.890625 202.625 C 161.355469 205.105469 163.242188 207.785156 165.554688 210.65625 C 167.867188 213.53125 170.34375 215.984375 172.996094 218.015625 C 175.644531 220.042969 178.207031 221.167969 180.683594 221.390625 C 184.855469 221.839844 187.703125 220.402344 189.222656 217.082031 C 190.746094 213.753906 191.507812 209.839844 191.507812 205.332031 L 191.507812 133.820312 C 191.507812 124.808594 190.605469 118.75 188.804688 115.652344 C 187 112.550781 184.292969 111.109375 180.683594 111.332031 L 180.683594 109.816406 L 218.386719 109.816406 L 218.386719 111.332031 C 214.78125 111.109375 212.074219 112.550781 210.265625 115.652344 C 208.464844 118.75 207.5625 124.808594 207.5625 133.820312 L 207.5625 195.527344 C 207.5625 201.726562 206.125 207.046875 203.253906 211.5 C 200.378906 215.953125 196.433594 219.394531 191.417969 221.816406 C 186.402344 224.238281 180.738281 225.449219 174.429688 225.449219 C 170.371094 225.449219 166.734375 224.828125 163.523438 223.589844 C 160.3125 222.347656 157.132812 220.488281 153.976562 218.007812 Z M 153.976562 218.007812 " fill-opacity="1" fill-rule="nonzero"/></svg>